<svg width="188" height="161" xmlns="http://www.w3.org/2000/svg" xmlns:xlink="http://www.w3.org/1999/xlink"><defs><path d="M75.865 85.453h-65.31c-5.402 0-9.797-4.385-9.797-9.773V10.53c0-5.39 4.395-9.774 9.797-9.774h65.31c5.404 0 9.796 4.385 9.796 9.773V75.68c0 5.388-4.392 9.773-9.796 9.773zM62.803 52.877a3.267 3.267 0 0 0-3.266 3.258 3.267 3.267 0 0 0 3.266 3.257 3.265 3.265 0 0 0 3.265-3.257 3.265 3.265 0 0 0-3.265-3.258zM43.21 26.817a3.267 3.267 0 0 0-3.266 3.257 3.267 3.267 0 0 0 3.266 3.258 3.267 3.267 0 0 0 3.265-3.258 3.267 3.267 0 0 0-3.265-3.257zm-19.593 26.06a3.267 3.267 0 0 0-3.266 3.258 3.267 3.267 0 0 0 3.266 3.257 3.265 3.265 0 0 0 3.265-3.257 3.265 3.265 0 0 0-3.265-3.258z" id="a"/><path d="M66.068 65.308v3.857a3.26 3.26 0 0 1-3.265 3.258 3.263 3.263 0 0 1-3.266-3.258v-3.857c-3.791-1.349-6.53-4.932-6.53-9.173 0-4.242 2.739-7.825 6.53-9.174V17.044a3.263 3.263 0 0 1 3.266-3.258 3.26 3.26 0 0 1 3.265 3.258v29.917c3.795 1.35 6.531 4.932 6.531 9.174 0 4.241-2.736 7.824-6.53 9.173z" id="b"/><path d="M46.475 39.248v29.917a3.263 3.263 0 0 1-3.265 3.258 3.263 3.263 0 0 1-3.266-3.258V39.248c-3.791-1.35-6.53-4.932-6.53-9.174 0-4.241 2.739-7.824 6.53-9.173v-3.857a3.263 3.263 0 0 1 3.266-3.258 3.263 3.263 0 0 1 3.265 3.258v3.857c3.795 1.349 6.531 4.932 6.531 9.173 0 4.242-2.736 7.825-6.53 9.174z" id="c"/><path d="M26.882 65.308v3.857a3.26 3.26 0 0 1-3.265 3.258 3.263 3.263 0 0 1-3.266-3.258v-3.857c-3.791-1.349-6.53-4.932-6.53-9.173 0-4.242 2.739-7.825 6.53-9.174V17.044a3.263 3.263 0 0 1 3.266-3.258 3.26 3.26 0 0 1 3.265 3.258v29.917c3.795 1.35 6.531 4.932 6.531 9.174 0 4.241-2.736 7.824-6.53 9.173z" id="d"/><ellipse id="e" cx="23.5" cy="55.96" rx="9.855" ry="9.831"/><ellipse id="f" cx="43.21" cy="29.493" rx="9.855" ry="9.831"/><ellipse id="g" cx="62.919" cy="55.96" rx="9.855" ry="9.831"/></defs><g fill="none" fill-rule="evenodd"><path d="M168.636 56.248a40.885 40.885 0 0 1 8.363 6.858c.279.298.554.599.824.906 1.169 1.328 2.275 2.703 3.265 4.176.016.022.025.044.04.066.975 1.453 1.824 2.991 2.608 4.567.169.339.332.677.491 1.018a40.34 40.34 0 0 1 3.165 10.267c.072.423.138.843.198 1.269.24 1.798.41 3.618.41 5.48 0 22.46-18.27 40.727-40.733 40.727H40.733C18.27 131.582 0 113.314 0 90.854c0-1.86.17-3.68.414-5.476A40.46 40.46 0 0 1 3.8 73.78c.125-.266.257-.53.385-.796a40.785 40.785 0 0 1 6.05-9.035c.201-.232.408-.454.615-.68a40.958 40.958 0 0 1 9.096-7.375c1.642-.98 3.337-1.88 5.12-2.625v-.01c0-15.545 12.649-28.196 28.2-28.196 1.297 0 2.575.094 3.838.263.332.047.652.141.984.198.912.156 1.823.32 2.71.564.54.15 1.056.366 1.583.545.632.216 1.272.407 1.889.67.846.36 1.654.796 2.46 1.235.231.125.479.219.708.354C75.619 11.46 93.379 0 112.8 0c27.642 0 50.133 22.488 50.133 50.127 0 1.015-.034 2.042-.103 3.104 1.764.733 3.447 1.61 5.08 2.572.243.144.485.295.726.445zm-11.97-6.121c0-24.183-19.677-43.861-43.866-43.861-17.443 0-33.323 10.586-40.213 26.526 2.24 2.118 4.192 4.574 5.674 7.403a3.135 3.135 0 0 1-5.552 2.908 21.933 21.933 0 0 0-5.74-6.971c-.025-.019-.06-.019-.085-.04a22.31 22.31 0 0 0-2.876-1.921c-.213-.123-.436-.226-.652-.339a21.633 21.633 0 0 0-2.337-1.046 19.94 19.94 0 0 0-1.053-.373 21.665 21.665 0 0 0-2.247-.58c-.357-.072-.708-.166-1.071-.222a21.976 21.976 0 0 0-3.381-.282c-11.412 0-20.809 8.763-21.833 19.91 2.992-.702 6.097-1.112 9.3-1.112a3.132 3.132 0 1 1 0 6.266c-4.011 0-7.85.723-11.431 1.989a34.405 34.405 0 0 0-9.15 4.893c-.137.104-.281.207-.42.314a34.5 34.5 0 0 0-3.7 3.283c-.06.063-.116.128-.175.194a34.318 34.318 0 0 0-3.046 3.663c-.084.115-.175.228-.26.347a34.661 34.661 0 0 0-2.503 4.158c-.091.178-.17.357-.257.535a33.906 33.906 0 0 0-1.824 4.443c-.016.04-.031.078-.044.119-.492 1.522-.849 3.092-1.125 4.687-.056.322-.103.648-.15.974-.229 1.598-.382 3.218-.382 4.862 0 19.005 15.46 34.462 34.466 34.462h106.534c19.003 0 34.466-15.457 34.466-34.462 0-1.65-.156-3.27-.385-4.871a34.874 34.874 0 0 0-1.269-5.649c-.038-.113-.085-.22-.122-.332a34.576 34.576 0 0 0-1.733-4.198c-.113-.232-.216-.467-.335-.696a34.595 34.595 0 0 0-2.429-4.013c-.144-.207-.304-.401-.45-.605a34.665 34.665 0 0 0-2.846-3.402c-.106-.11-.204-.232-.31-.338a34.407 34.407 0 0 0-3.603-3.17c-.195-.151-.395-.298-.596-.446a34.359 34.359 0 0 0-9.111-4.809c-3.541-1.228-7.323-1.933-11.277-1.933a3.132 3.132 0 1 1 0-6.265c3.227 0 6.354.416 9.365 1.13.013-.375.035-.76.035-1.13z" fill="#505070" fill-rule="nonzero"/><g fill-rule="nonzero" transform="translate(50.032 65.791)"><use fill="#FFF" fill-rule="evenodd" xlink:href="#a"/><path stroke="#FFF" stroke-width="9" d="M75.865 89.953h-65.31c-7.884 0-14.297-6.397-14.297-14.273V10.53c0-7.876 6.413-14.273 14.297-14.273h65.31c7.886 0 14.296 6.396 14.296 14.273v65.15c0 7.877-6.41 14.273-14.296 14.273zM62.803 57.377c.683 0 1.234-.55 1.234-1.242a1.235 1.235 0 0 0-2.469 0c0 .69.553 1.242 1.235 1.242zM43.21 31.317c.683 0 1.234-.55 1.234-1.243a1.233 1.233 0 1 0-2.469 0c0 .693.551 1.243 1.235 1.243zm-19.593 26.06c.683 0 1.234-.55 1.234-1.242a1.235 1.235 0 0 0-2.469 0c0 .69.553 1.242 1.235 1.242z"/></g><path d="M126.189 151.622H60.295c-5.45 0-9.884-4.424-9.884-9.86V76.029c0-5.436 4.435-9.86 9.884-9.86h65.894c5.452 0 9.884 4.424 9.884 9.86v65.733c0 5.436-4.432 9.86-9.884 9.86zm3.294-75.593a3.294 3.294 0 0 0-3.294-3.287H60.295a3.296 3.296 0 0 0-3.294 3.287v65.733a3.297 3.297 0 0 0 3.294 3.287h65.894a3.294 3.294 0 0 0 3.294-3.287V76.029zm-13.178 55.268v3.892a3.29 3.29 0 0 1-3.295 3.286 3.292 3.292 0 0 1-3.295-3.286v-3.892c-3.825-1.36-6.59-4.976-6.59-9.255 0-4.28 2.765-7.894 6.59-9.255V82.602a3.292 3.292 0 0 1 3.295-3.286 3.29 3.29 0 0 1 3.295 3.286v30.185c3.828 1.36 6.589 4.976 6.589 9.255 0 4.28-2.761 7.895-6.59 9.255zm-3.295-12.542a3.296 3.296 0 0 0-3.295 3.287 3.297 3.297 0 0 0 3.295 3.287 3.294 3.294 0 0 0 3.295-3.287 3.294 3.294 0 0 0-3.295-3.287zm-16.473-13.75v30.184a3.292 3.292 0 0 1-3.295 3.286 3.292 3.292 0 0 1-3.295-3.286v-30.185c-3.825-1.36-6.59-4.976-6.59-9.255 0-4.28 2.765-7.895 6.59-9.255v-3.892a3.292 3.292 0 0 1 3.295-3.286 3.292 3.292 0 0 1 3.295 3.286v3.892c3.828 1.36 6.589 4.976 6.589 9.255 0 4.28-2.761 7.894-6.59 9.255zm-3.295-12.543a3.296 3.296 0 0 0-3.295 3.287 3.296 3.296 0 0 0 6.59 0 3.297 3.297 0 0 0-3.295-3.287zm-16.473 38.835v3.892a3.29 3.29 0 0 1-3.295 3.286 3.292 3.292 0 0 1-3.295-3.286v-3.892c-3.825-1.36-6.589-4.976-6.589-9.255 0-4.28 2.764-7.894 6.59-9.255V82.602a3.292 3.292 0 0 1 3.294-3.286 3.29 3.29 0 0 1 3.295 3.286v30.185c3.828 1.36 6.589 4.976 6.589 9.255 0 4.28-2.761 7.895-6.59 9.255zm-3.295-12.542a3.296 3.296 0 0 0-3.295 3.287 3.297 3.297 0 0 0 3.295 3.287 3.294 3.294 0 0 0 3.295-3.287 3.294 3.294 0 0 0-3.295-3.287z" fill="#505070" fill-rule="nonzero"/><g transform="translate(50.032 65.791)"><use fill="#D9D5F1" xlink:href="#b"/><path stroke="#FFF" stroke-width="5" d="M68.568 66.932v2.233a5.76 5.76 0 0 1-5.765 5.758 5.763 5.763 0 0 1-5.766-5.758v-2.233c-3.946-2.094-6.53-6.196-6.53-10.797 0-4.602 2.584-8.704 6.53-10.797V17.044a5.763 5.763 0 0 1 5.766-5.758 5.76 5.76 0 0 1 5.765 5.758v28.293c3.947 2.093 6.531 6.195 6.531 10.798 0 4.602-2.584 8.704-6.53 10.797z"/></g><g transform="translate(50.032 65.791)"><use fill="#D9D5F1" xlink:href="#c"/><path stroke="#FFF" stroke-width="5" d="M48.975 40.872v28.293a5.763 5.763 0 0 1-5.765 5.758 5.763 5.763 0 0 1-5.766-5.758V40.87c-3.946-2.093-6.53-6.195-6.53-10.797 0-4.601 2.584-8.703 6.53-10.797v-2.233a5.763 5.763 0 0 1 5.766-5.758 5.763 5.763 0 0 1 5.765 5.758v2.233c3.947 2.092 6.531 6.194 6.531 10.797 0 4.603-2.584 8.705-6.53 10.798z"/></g><g transform="translate(50.032 65.791)"><use fill="#D9D5F1" xlink:href="#d"/><path stroke="#FFF" stroke-width="6" d="M29.882 67.23v1.935a6.26 6.26 0 0 1-6.265 6.258 6.263 6.263 0 0 1-6.266-6.258v-1.936c-3.956-2.22-6.53-6.408-6.53-11.094 0-4.687 2.574-8.875 6.53-11.094V17.044a6.263 6.263 0 0 1 6.266-6.258 6.26 6.26 0 0 1 6.265 6.258V45.04c3.957 2.219 6.531 6.407 6.531 11.095 0 4.687-2.574 8.875-6.53 11.094z"/></g><g transform="translate(50.032 65.791)"><use fill="#FFF" xlink:href="#e"/><ellipse stroke="#505070" stroke-width="6" cx="23.5" cy="55.96" rx="6.855" ry="6.831"/></g><g transform="translate(50.032 65.791)"><use fill="#FFF" xlink:href="#f"/><ellipse stroke="#505070" stroke-width="6" cx="43.21" cy="29.493" rx="6.855" ry="6.831"/></g><g transform="translate(50.032 65.791)"><use fill="#FFF" xlink:href="#g"/><ellipse stroke="#505070" stroke-width="6" cx="62.919" cy="55.96" rx="6.855" ry="6.831"/></g></g></svg>