<svg viewBox="0 0 1207 272" height="272pt" width="1207pt" xmlns="http://www.w3.org/2000/svg"><path d="M0 0h995.14c-2.19 6.35-2.89 13.39-5.44 19.54-2.29.99-4.88 1.47-7.31 2-4.56-4.74-8.93-9.63-13.69-14.18-4.75 2.08-9.34 4.65-13.44 7.84 1.49 6.37 3.74 12.51 5.2 18.88-1.6 2.09-3.3 3.78-5.38 5.4-1.44-.34-2.88-.66-4.31-1.02-1.4-6.52-3.26-12.93-4.74-19.43-.44-1.36-2.91-.88-4.02-1.02-6.81.15-13.65-.22-20.44.22-1.74 6.18-3.1 12.48-4.75 18.69-.85 3.72-2.12 7.42-2.56 11.2-3.83 1.46-7.84 1.69-11.52 3.56-7.42-7.37-14.68-14.93-21.83-22.56-6.92 3.59-14.49 7.31-20.59 12.18-.4 1.82.91 4.07 1.24 5.91 1.85 6.25 3.44 12.55 5.41 18.77.43 1.76 1.27 4.01.72 5.78-2.6 2.49-5.19 4.92-7.6 7.59-10.1-2.37-19.97-5.74-30.03-8.29-4.19 6.32-8.52 13.11-11.64 20.13-.55 1.23.9 2.01 1.57 2.81 6.55 6.48 13.37 12.68 19.95 19.12-.35 4.18-1.94 7.96-2.86 12.09-10 2-19.85 4.92-29.79 7.24-.29 8.12-.65 16.59.19 24.67 9.97 1.71 19.67 5.12 29.64 6.89.81 4.06 2.33 7.88 2.89 11.98-4.68 4.67-9.44 9.25-14.13 13.91-2.44 2.5-5.44 4.54-7.65 7.23 2.6 7.18 7.91 14.8 11.86 21.23 9.1-2.76 18.29-5.32 27.45-7.91 1.37-.22 2.56-.84 3.59.46 2.25 2.43 4.59 4.74 6.96 7.05-2.05 10.12-5.76 19.95-8.07 30.03 6.6 4.58 13.62 8.67 20.93 12.01 5.94-6.08 11.64-12.38 17.64-18.41 1.24-1.09 2.66-3.44 4.42-3.47 3.72.68 7.21 2.19 11 2.64 2.27 10.29 5.27 20.46 7.59 30.72 7.94.25 15.9.14 23.84.06 2.95-10.1 5.04-20.47 7.97-30.58 3.2-.96 6.58-1.72 9.84-2.66 2.15-.67 2.89.96 4.27 2.18 5.85 6.15 11.93 12.09 17.62 18.38 1.01 1.35 1.85.66 3.14.2 6.57-3.13 12.81-6.75 18.75-10.97-.52-4.48-2.12-8.54-3.26-12.87-1.64-5.71-3.3-11.43-4.8-17.18 2.79-2.54 5.23-5.52 8.14-7.91 1.31-.08 2.68.29 3.93.66 8.68 2.56 17.51 4.79 26.1 7.64 4.2-6.85 9.18-13.77 11.93-21.36-5.55-5.5-11.19-10.9-16.9-16.23-1.17-1.18-2.64-.75-4.16-.87-15.36.03-30.71.08-46.07-.02-5.75 7.4-12.72 13.64-21.15 17.84-11.24 5.79-24.35 7.79-36.81 5.68-15.86-2.5-30.32-11.83-39.36-25.07-6.3-9.2-10-20.26-10.39-31.41-.56-13.72 3.88-27.63 12.28-38.49 8.43-11.13 20.85-18.91 34.46-21.92.12 1.01.26 2.02.4 3.03 6.33 1.77 12.79 3.01 19.05 4.95a45.06 45.06 0 0 1 1.83 7.41c-4.26 4.51-8.9 8.66-13.3 13.02-.53.5-.65 1.01-.36 1.53 1.9 4.32 4.52 8.85 7.45 12.55 6.41-1.21 12.51-3.82 18.9-5 2.32 1.57 6.61 4.66 4.92 7.89-1.4 5.54-3.48 10.98-4.55 16.6 4.17 2.53 8.79 6.18 13.53 7.3 4.79-4.15 8.67-9.39 13.53-13.48 2.38-.44 5.26 1.04 7.55 1.71 2.19 6.43 3.09 13.15 5.35 19.54 5.08.16 10.17.2 15.25-.03 1.6-6.47 3.22-12.94 4.9-19.39 2.47-.69 7.25-3.5 9.11-.75 4.15 4.15 7.93 8.84 12.45 12.6 4.24-1.9 8.45-4.1 12.18-6.88 1.58-1.09.63-2.24.39-3.75-1.42-5.44-3.39-10.76-4.51-16.27 1.6-1.81 3.28-3.47 5.09-5.07l2.4.33c5.05 8.41 11.74 14.85 20.13 19.9 16.86 10.46 38.8 15.06 57.51 21.44 9.44 3.17 20.28 7.43 27.18 14.87 8.03 8.32 9.58 23.5 1.72 32.42-5.75 6.64-15.55 9.58-23.92 10.97-20.98 3.24-43.1 1.07-62.66-7.36-8.48-3.57-16.32-8.32-23.74-13.74v43.12c20.96 12.76 44.84 18.82 69.25 19.72 18.67 1.13 38.11-2.07 54.64-11.11 13.37-7.25 24.68-18.43 30.13-32.83 5.14-13 4.32-28.38 1.36-41.81-3.52-15.28-12.18-28.16-24.99-37.19-18.77-13.32-41.78-17.68-63.35-24.43-7.86-2.63-17.29-5.93-23.08-12.09-7.04-7.39-6.21-19.85.39-27.22 5.27-6.05 13.41-9.22 21.05-10.98 20.56-4.39 42.56-1.58 61.66 7.12 5.58 2.47 10.79 5.59 15.96 8.81-.13-13.8.16-27.63-.14-41.43-16.48-8.41-34.11-14.14-52.62-15.59-22.49-1.43-45.79 1.49-65.22 13.64-1.27-2.17-2.73-4.2-4.16-6.26-6.32 1.22-12.34 3.81-18.66 4.93-2.16-.53-4.77-3.42-5.83-5.38 1.29-6.38 3.85-12.49 5.1-18.9-4.16-3.01-8.57-5.57-13.27-7.64-4.96 4.36-9.1 9.49-13.98 13.95-2.57-.41-4.99-1.01-7.46-1.86-1.8-6.45-3.39-12.96-4.84-19.49H1207v272H0V0z" fill="none"/><path d="M995.14 0h15.55c1.45 6.53 3.04 13.04 4.84 19.49 2.47.85 4.89 1.45 7.46 1.86 4.88-4.46 9.02-9.59 13.98-13.95 4.7 2.07 9.11 4.63 13.27 7.64-1.25 6.41-3.81 12.52-5.1 18.9 1.06 1.96 3.67 4.85 5.83 5.38 6.32-1.12 12.34-3.71 18.66-4.93 1.43 2.06 2.89 4.09 4.16 6.26 1.3 2.35 2.45 4.77 3.68 7.16-4.14 3.74-7.97 7.81-12.11 11.55-.64.76-2.12 1.59-2.11 2.65.48 2.38 1.25 4.69 1.76 7.06 6.55 1.6 13.08 3.32 19.65 4.82.35 5.25.33 10.44.03 15.68-6.59 1.7-13.3 3.11-19.83 5.03-.5 2.49-1.12 4.96-1.72 7.42 4.81 4.59 9.53 9.27 14.37 13.82-2.35 4.52-4.85 8.88-7.64 13.13-5.9-.82-11.56-3.16-17.34-4.55l-2.4-.33c-1.81 1.6-3.49 3.26-5.09 5.07 1.12 5.51 3.09 10.83 4.51 16.27.24 1.51 1.19 2.66-.39 3.75-3.73 2.78-7.94 4.98-12.18 6.88-4.52-3.76-8.3-8.45-12.45-12.6-1.86-2.75-6.64.06-9.11.75-1.68 6.45-3.3 12.92-4.9 19.39-5.08.23-10.17.19-15.25.03-2.26-6.39-3.16-13.11-5.35-19.54-2.29-.67-5.17-2.15-7.55-1.71-4.86 4.09-8.74 9.33-13.53 13.48-4.74-1.12-9.36-4.77-13.53-7.3 1.07-5.62 3.15-11.06 4.55-16.6 1.69-3.23-2.6-6.32-4.92-7.89-6.39 1.18-12.49 3.79-18.9 5-2.93-3.7-5.55-8.23-7.45-12.55-.29-.52-.17-1.03.36-1.53 4.4-4.36 9.04-8.51 13.3-13.02a45.06 45.06 0 0 0-1.83-7.41c-6.26-1.94-12.72-3.18-19.05-4.95-.14-1.01-.28-2.02-.4-3.03.18-4.25-.1-8.53.37-12.76 6.3-1.42 12.51-3.23 18.83-4.54.93-2.45 1.6-4.97 2.29-7.5-4.56-4.76-9.43-9.34-14.27-13.82 1.84-4.86 4.9-9.42 7.74-13.75 4.95 1.4 9.88 2.86 14.84 4.25 1.43.36 2.87.68 4.31 1.02 2.08-1.62 3.78-3.31 5.38-5.4-1.46-6.37-3.71-12.51-5.2-18.88 4.1-3.19 8.69-5.76 13.44-7.84 4.76 4.55 9.13 9.44 13.69 14.18 2.43-.53 5.02-1.01 7.31-2 2.55-6.15 3.25-13.19 5.44-19.54z" fill="#d9d9d9"/><path d="M921.57 18.23c6.79-.44 13.63-.07 20.44-.22 1.11.14 3.58-.34 4.02 1.02 1.48 6.5 3.34 12.91 4.74 19.43-4.96-1.39-9.89-2.85-14.84-4.25-2.84 4.33-5.9 8.89-7.74 13.75 4.84 4.48 9.71 9.06 14.27 13.82-.69 2.53-1.36 5.05-2.29 7.5-6.32 1.31-12.53 3.12-18.83 4.54-.47 4.23-.19 8.51-.37 12.76-13.61 3.01-26.03 10.79-34.46 21.92-8.4 10.86-12.84 24.77-12.28 38.49.39 11.15 4.09 22.21 10.39 31.41 9.04 13.24 23.5 22.57 39.36 25.07 12.46 2.11 25.57.11 36.81-5.68 8.43-4.2 15.4-10.44 21.15-17.84 15.36.1 30.71.05 46.07.02 1.52.12 2.99-.31 4.16.87 5.71 5.33 11.35 10.73 16.9 16.23-2.75 7.59-7.73 14.51-11.93 21.36-8.59-2.85-17.42-5.08-26.1-7.64-1.25-.37-2.62-.74-3.93-.66-2.91 2.39-5.35 5.37-8.14 7.91 1.5 5.75 3.16 11.47 4.8 17.18 1.14 4.33 2.74 8.39 3.26 12.87-5.94 4.22-12.18 7.84-18.75 10.97-1.29.46-2.13 1.15-3.14-.2-5.69-6.29-11.77-12.23-17.62-18.38-1.38-1.22-2.12-2.85-4.27-2.18-3.26.94-6.64 1.7-9.84 2.66-2.93 10.11-5.02 20.48-7.97 30.58-7.94.08-15.9.19-23.84-.06-2.32-10.26-5.32-20.43-7.59-30.72-3.79-.45-7.28-1.96-11-2.64-1.76.03-3.18 2.38-4.42 3.47-6 6.03-11.7 12.33-17.64 18.41-7.31-3.34-14.33-7.43-20.93-12.01 2.31-10.08 6.02-19.91 8.07-30.03-2.37-2.31-4.71-4.62-6.96-7.05-1.03-1.3-2.22-.68-3.59-.46-9.16 2.59-18.35 5.15-27.45 7.91-3.95-6.43-9.26-14.05-11.86-21.23 2.21-2.69 5.21-4.73 7.65-7.23 4.69-4.66 9.45-9.24 14.13-13.91-.56-4.1-2.08-7.92-2.89-11.98-9.97-1.77-19.67-5.18-29.64-6.89-.84-8.08-.48-16.55-.19-24.67 9.94-2.32 19.79-5.24 29.79-7.24.92-4.13 2.51-7.91 2.86-12.09-6.58-6.44-13.4-12.64-19.95-19.12-.67-.8-2.12-1.58-1.57-2.81 3.12-7.02 7.45-13.81 11.64-20.13 10.06 2.55 19.93 5.92 30.03 8.29 2.41-2.67 5-5.1 7.6-7.59.55-1.77-.29-4.02-.72-5.78-1.97-6.22-3.56-12.52-5.41-18.77-.33-1.84-1.64-4.09-1.24-5.91 6.1-4.87 13.67-8.59 20.59-12.18 7.15 7.63 14.41 15.19 21.83 22.56 3.68-1.87 7.69-2.1 11.52-3.56.44-3.78 1.71-7.48 2.56-11.2 1.65-6.21 3.01-12.51 4.75-18.69z" fill="#73cb0b"/><path d="M1139.01 27.01c18.51 1.45 36.14 7.18 52.62 15.59.3 13.8.01 27.63.14 41.43-5.17-3.22-10.38-6.34-15.96-8.81-19.1-8.7-41.1-11.51-61.66-7.12-7.64 1.76-15.78 4.93-21.05 10.98-6.6 7.37-7.43 19.83-.39 27.22 5.79 6.16 15.22 9.46 23.08 12.09 21.57 6.75 44.58 11.11 63.35 24.43 12.81 9.03 21.47 21.91 24.99 37.19 2.96 13.43 3.78 28.81-1.36 41.81-5.45 14.4-16.76 25.58-30.13 32.83-16.53 9.04-35.97 12.24-54.64 11.11-24.41-.9-48.29-6.96-69.25-19.72v-43.12c7.42 5.42 15.26 10.17 23.74 13.74 19.56 8.43 41.68 10.6 62.66 7.36 8.37-1.39 18.17-4.33 23.92-10.97 7.86-8.92 6.31-24.1-1.72-32.42-6.9-7.44-17.74-11.7-27.18-14.87-18.71-6.38-40.65-10.98-57.51-21.44-8.39-5.05-15.08-11.49-20.13-19.9 5.78 1.39 11.44 3.73 17.34 4.55 2.79-4.25 5.29-8.61 7.64-13.13-4.84-4.55-9.56-9.23-14.37-13.82.6-2.46 1.22-4.93 1.72-7.42 6.53-1.92 13.24-3.33 19.83-5.03.3-5.24.32-10.43-.03-15.68-6.57-1.5-13.1-3.22-19.65-4.82-.51-2.37-1.28-4.68-1.76-7.06-.01-1.06 1.47-1.89 2.11-2.65 4.14-3.74 7.97-7.81 12.11-11.55-1.23-2.39-2.38-4.81-3.68-7.16 19.43-12.15 42.73-15.07 65.22-13.64zm-526.72 2.51c22.48 32.44 44.88 64.95 67.39 97.36 21.92-31.8 43.97-63.51 65.88-95.32.72-.83 1.22-2.24 2.55-2.06 15.26-.02 30.58.04 45.84-.03.11 77.83.02 155.7.05 233.53-14.08 0-28.16.01-42.24-.01-.04-57.38.03-114.78-.04-172.16-24.05 34.33-47.97 68.78-72.06 103.09-24.05-34.06-47.73-68.6-71.86-102.59-.11 57.21-.02 114.45-.04 171.66-14.1-.01-28.19.07-42.29-.04.09-77.76-.04-155.66.07-233.41 15.58-.08 31.17-.05 46.75-.02zM.24 29.48c14.74-.03 29.49.14 44.23-.08.38 1.01.73 2.03 1.06 3.06 17.1 56.21 34.2 112.43 51.32 168.64 1.49-2.91 2.13-5.91 3.21-9.07 17.5-54.18 34.9-108.44 52.49-162.58 12.29.08 24.61.08 36.9 0 17.69 54.4 35.13 108.92 52.75 163.35.95 2.83 1.56 5.63 2.95 8.3 17.56-57.16 35.04-114.44 52.59-171.6 14.67-.01 29.35.02 44.02-.02-24.86 77.86-49.92 155.69-74.87 233.52h-43.72c-17.35-54.01-34.59-108.06-51.97-162.06-17.6 53.94-34.87 108.08-52.37 162.06-14.57 0-29.15-.01-43.72 0C50.17 185.17 25.09 107.34.24 29.48zm357.95.11c14.1-.2 28.21-.04 42.3-.08.04 32.33-.02 64.66.03 96.99 32.91-.01 65.81.01 98.72-.01-.02-32.3.08-64.61-.05-96.9 14.09-.21 28.2-.03 42.29-.09.07 77.81-.03 155.64.05 233.45-14.1.11-28.19.03-42.29.04-.01-32.25.04-64.5-.02-96.75-32.87-.02-65.76.08-98.62-.05-.21 32.23-.07 64.52-.07 96.76-14.1.1-28.19.04-42.29.04-.02-77.79.08-155.62-.05-233.4z" fill="#003756"/><path d="M1006.85 43.62c-2.8 9.1-5.2 18.31-8 27.4 2.81 2.69 5.59 5.4 8.24 8.25 4.37-.7 8.48-2.15 12.73-3.35 5.73-1.71 11.54-3.18 17.27-4.9.88 1.21 1.72 2.45 2.55 3.7.63 1.66 1.57 3.47 1.64 5.26.5 10.72-3.61 21.49-11.27 29.03-9.26 9.41-23.4 13.44-36.22 10.2-2.76-.8-6.31-1.47-8.2-3.77-4.26-7.5-10.08-14.03-17.1-19.04-2.57-1.93-2.82-4.61-3.48-7.55-1.89-9.92.42-20.44 6.12-28.75 7.7-11.47 21.98-18.12 35.72-16.48z" fill="#73cb0b"/><path d="M1006.85 43.62c12.21 1.23 23.34 8.47 29.37 19.16 2.01 3.85 4.18 7.42 3.42 11.94-.83-1.25-1.67-2.49-2.55-3.7-5.73 1.72-11.54 3.19-17.27 4.9-4.25 1.2-8.36 2.65-12.73 3.35-2.65-2.85-5.43-5.56-8.24-8.25 2.8-9.09 5.2-18.3 8-27.4zM968.49 96.4c7.02 5.01 12.84 11.54 17.1 19.04-2.52-.1-4.11-1.59-6.05-3.01-4.36-3.34-8.02-7.54-10.6-12.4-.79-1.3-.7-2.18-.45-3.63z" fill="#fff"/></svg>