<svg version="1.1" id="Layer_1" xmlns="http://www.w3.org/2000/svg" x="0" y="0" viewBox="0 0 512 512" xml:space="preserve"><style>.st0{opacity:.25}.st1,.st2{fill:none;stroke:#cbc9ec;stroke-width:4;stroke-miterlimit:10}.st2{stroke-dasharray:4,4}.st3{fill:#706dcc}.st4{fill:#645fc6}.st5{fill:#b3b1ea}.st6{fill:#cbc9ec}.st7{fill:none;stroke:#362eb4;stroke-width:6;stroke-linecap:round;stroke-linejoin:round;stroke-miterlimit:10}.st8{fill:#fff}.st9{fill:#eaeafb}.st10,.st11{fill:none;stroke:#362eb4;stroke-width:4;stroke-linecap:round;stroke-linejoin:round;stroke-miterlimit:10}.st11{stroke-width:8}.st12{fill:#362eb4}.st13{fill:#dfe0f6}</style><g class="st0" opacity=".25"><path class="st1" d="M256 503.6C119.3 503.6 8.4 392.7 8.4 256M256 8.4c136.8 0 247.6 110.9 247.6 247.6" fill="none" stroke="#cbc9ec" stroke-width="4" stroke-miterlimit="10"/><path class="st2" d="M503.6 256c0 136.7-110.8 247.6-247.6 247.6M8.4 256C8.4 119.3 119.3 8.4 256 8.4" fill="none" stroke="#cbc9ec" stroke-width="4" stroke-miterlimit="10" stroke-dasharray="4,4"/><path class="st1" d="M120.2 256C120.2 119.3 181 8.4 256 8.4M391.8 256c0 136.7-60.8 247.6-135.8 247.6" fill="none" stroke="#cbc9ec" stroke-width="4" stroke-miterlimit="10"/><path class="st2" d="M256 8.4c75 0 135.8 110.9 135.8 247.6" fill="none" stroke="#cbc9ec" stroke-width="4" stroke-miterlimit="10" stroke-dasharray="4,4"/><path class="st1" d="M256 8.4c-70.5 0-133.7 29.8-178.7 77 45 47.3 108.3 77.1 178.7 77.1 70.5 0 133.7-29.8 178.8-77.1-45.1-47.2-108.3-77-178.8-77zm0 349c-68.6 0-130.8 28-175.6 73.2 44.8 45 106.9 73.1 175.6 73.1 68.6 0 130.9-28 175.6-73.1-44.7-45.2-107-73.2-175.6-73.2zM8.4 256h495.2M256 8.4v495.2" fill="none" stroke="#cbc9ec" stroke-width="4" stroke-miterlimit="10"/><path class="st2" d="M256 503.6c-75 0-135.8-110.9-135.8-247.6" fill="none" stroke="#cbc9ec" stroke-width="4" stroke-miterlimit="10" stroke-dasharray="4,4"/></g><g class="st0" opacity=".25"><path class="st1" fill="none" stroke="#cbc9ec" stroke-width="4" stroke-miterlimit="10" d="M16 21.8h25.4v18.1H16zm40.2 0h68.4m-68.4 9h68.4m-68.4 9.1h38m8.1 0h1.7M28.7 21.8v18.1m441.9-18.1H496v18.1h-25.4zm-14.8 0h-68.4m68.4 9h-68.4m68.4 9.1h-38m-8.1 0H408m75.3-18.1v18.1"/></g><path class="st3" d="M459.2 425.3v-246c0-8.9-7.2-16-16-16H68.9c-8.9 0-16 7.2-16 16v246h406.3z" fill="#706DCC"/><path class="st4" fill="#645FC6" d="M52.8 208.7h405.1V230H52.8z"/><path class="st5" d="M443.1 163.2H68.9c-8.9 0-16 7.2-16 16v29.5h406.3v-29.5c0-8.8-7.2-16-16.1-16z" fill="#B3B1EA"/><path class="st6" d="M443.1 163.2H68.9c-8.9 0-16 7.2-16 16v17h406.3v-17c0-8.8-7.2-16-16.1-16z" fill="#CBC9EC"/><path class="st7" d="M443.1 163.2H68.9c-8.9 0-16 7.2-16 16v29.5h406.3v-29.5c0-8.8-7.2-16-16.1-16z" fill="none" stroke="#362eb4" stroke-width="6" stroke-linecap="round" stroke-linejoin="round" stroke-miterlimit="10"/><path class="st8" d="M10.6 425.3v30.4c0 8.9 7.2 16 16 16h458.7c8.9 0 16-7.2 16-16v-30.4H10.6z" fill="#fff"/><path class="st9" d="M190.9 426.4v3.2c0 8.9 7.2 16 16 16H305c8.9 0 16-7.2 16-16v-3.2H190.9z" fill="#EAEAFB"/><path class="st10" d="M190.9 426.4v3.2c0 8.9 7.2 16 16 16H305c8.9 0 16-7.2 16-16v-3.2H190.9z" fill="none" stroke="#362eb4" stroke-width="4" stroke-linecap="round" stroke-linejoin="round" stroke-miterlimit="10"/><path class="st9" d="M10.6 455.6c0 8.9 7.2 16 16 16h458.7c8.9 0 16-7.2 16-16v-.2H10.6v.2z" fill="#EAEAFB"/><path class="st11" d="M10.6 425.3v30.4c0 8.9 7.2 16 16 16h458.7c8.9 0 16-7.2 16-16v-30.4H10.6zm448.6 0v-246c0-8.9-7.2-16-16-16H68.9c-8.9 0-16 7.2-16 16v246h406.3z" fill="none" stroke="#362eb4" stroke-width="8" stroke-linecap="round" stroke-linejoin="round" stroke-miterlimit="10"/><path class="st8" d="M405.8 190.6c0 2.6-2.1 4.7-4.8 4.7H110.9c-2.6 0-4.7-2.1-4.7-4.7v-6.9c0-2.6 2.1-4.7 4.7-4.7h290.2c2.6 0 4.8 2.1 4.8 4.7v6.9h-.1z" fill="#fff"/><path class="st5" d="M110.9 178.9c-2.2 0-4 1.5-4.6 3.5.5 2 2.4 3.5 4.6 3.5h290.2c2.2 0 4-1.5 4.6-3.5-.5-2-2.4-3.5-4.6-3.5H110.9z" fill="#B3B1EA"/><path class="st10" d="M405.8 190.6c0 2.6-2.1 4.7-4.8 4.7H110.9c-2.6 0-4.7-2.1-4.7-4.7v-6.9c0-2.6 2.1-4.7 4.7-4.7h290.2c2.6 0 4.8 2.1 4.8 4.7v6.9h-.1z" fill="none" stroke="#362eb4" stroke-width="4" stroke-linecap="round" stroke-linejoin="round" stroke-miterlimit="10"/><ellipse transform="rotate(-45.001 425.413 183.611)" class="st10" cx="425.4" cy="183.6" rx="6.5" ry="6.5" fill="none" stroke="#362eb4" stroke-width="4" stroke-linecap="round" stroke-linejoin="round" stroke-miterlimit="10"/><path class="st10" fill="none" stroke="#362eb4" stroke-width="4" stroke-linecap="round" stroke-linejoin="round" stroke-miterlimit="10" d="M436.7 194.9l-6.8-6.7"/><path class="st12" d="M92.5 187.1l-2.3 2.2.5 3.2c.1.7-.2 1.4-.8 1.8-.6.4-1.4.5-2 .1l-2.8-1.5-2.8 1.5c-.3.1-.6.2-.9.2-.4 0-.8-.1-1.1-.4-.6-.4-.9-1.1-.7-1.8l.5-3.2-2.3-2.2c-.5-.5-.7-1.3-.5-1.9.2-.7.8-1.2 1.5-1.3l3.2-.5 1.4-2.9c.3-.7 1-1.1 1.7-1.1s1.4.4 1.7 1.1l1.4 2.9 3.2.5c.7.1 1.3.6 1.5 1.3.3.8.1 1.5-.4 2z" fill="#362EB4"/><path class="st5" fill="#B3B1EA" d="M155.1 297.6l25.2 20.3 25.2-20.3.1-24h-50.5z"/><path class="st4" fill="#645FC6" d="M205.6 297.6l25.2 20.3 25.2-20.3v-24h-50.4z"/><path class="st5" fill="#B3B1EA" d="M256 297.6l25.2 20.3 25.2-20.3v-24H256z"/><path class="st4" fill="#645FC6" d="M306.4 297.6l25.2 20.3 25.3-20.3v-24h-50.5z"/><path class="st13" d="M331.6 317.9l-25.2-20.3v-12 12l-25.2 20.3-25.2-20.3v-12 12l-25.2 20.3-25.2-20.3v-12 12l-25.2 20.3-16.4-13.1v91.1c0 2.9 2.3 5.2 5.2 5.2h173.5c2.9 0 5.2-2.3 5.2-5.2v-91.1l-16.3 13.1z" fill="#DFE0F6"/><path class="st8" d="M306.4 314.7v-12 12L281.2 335 256 314.7v-12 12L230.8 335l-25.2-20.3v-12 12L180.3 335 164 321.9v73.9c0 2.9 2.3 5.2 5.2 5.2h173.5c2.9 0 5.2-2.3 5.2-5.2v-73.9L331.6 335l-25.2-20.3z" fill="#fff"/><path class="st5" fill="#B3B1EA" d="M356.9 273.6H155.1l29.9-49h142z"/><path class="st5" fill="#B3B1EA" d="M306.6 273.6H205.4l15-49h71.2z"/><path class="st3" fill="#706DCC" d="M256 273.6h-50.6l15-49h34z"/><path class="st13" fill="#DFE0F6" d="M207.1 273.6h-52l30.3-49h34zm99 0H256v-49h36.1z"/><path class="st3" fill="#706DCC" d="M356.9 273.6h-50.5l-13.8-49h34z"/><path class="st4" d="M225.9 354.1c0-9.6-7.8-17.5-17.5-17.5H205c-9.6 0-17.5 7.8-17.5 17.5V401h38.3l.1-46.9z" fill="#645FC6"/><path class="st3" d="M208.4 345H205c-9.6 0-17.5 7.8-17.5 17.5V401h38.3v-38.6c.1-9.6-7.7-17.4-17.4-17.4zm39.1-9.6H348v33.7H247.5z" fill="#706DCC"/><path class="st5" fill="#B3B1EA" d="M247.5 342.1H348v27.1H247.5z"/><path class="st7" fill="none" stroke="#362eb4" stroke-width="6" stroke-linecap="round" stroke-linejoin="round" stroke-miterlimit="10" d="M155.1 297.6l25.2 20.3 25.2-20.3.1-24h-50.5zm50.5 0l25.2 20.3 25.2-20.3v-24h-50.4zm50.4 0l25.2 20.3 25.2-20.3v-24H256zm50.4 0l25.2 20.3 25.3-20.3v-24h-50.5z"/><path class="st7" d="M331.6 317.9l-25.2-20.3v-12h0v12l-25.2 20.3-25.2-20.3v-12h0v12l-25.2 20.3-25.2-20.3v-12h0v12l-25.2 20.3-16.4-13.1v91.1c0 2.9 2.3 5.2 5.2 5.2h173.5c2.9 0 5.2-2.3 5.2-5.2v-91.1l-16.3 13.1zm25.3-44.3H155.1l29.9-49h142z" fill="none" stroke="#362eb4" stroke-width="6" stroke-linecap="round" stroke-linejoin="round" stroke-miterlimit="10"/><path class="st7" fill="none" stroke="#362eb4" stroke-width="6" stroke-linecap="round" stroke-linejoin="round" stroke-miterlimit="10" d="M306.6 273.6H205.4l15-49h71.2zm-50.6-49v49m-30.1 80.5c0-9.6-7.8-17.5-17.5-17.5H205c-9.6 0-17.5 7.8-17.5 17.5V401h38.3l.1-46.9h0zm21.6-18.7H348v33.7H247.5zm50.2 0v33.7m-87.4 0h2.9"/><circle class="st12" cx="256" cy="85.6" r="56.7" fill="#362EB4"/><path d="M199.3 85.6c0-31.3 25.4-56.7 56.7-56.7s56.7 25.4 56.7 56.7" fill="#352ec1"/><ellipse transform="rotate(-45.001 255.982 85.584)" class="st11" cx="256" cy="85.6" rx="56.7" ry="56.7" fill="none" stroke="#362eb4" stroke-width="8" stroke-linecap="round" stroke-linejoin="round" stroke-miterlimit="10"/><path class="st9" d="M256 124.2c-4.2 0-8.4-1.6-11.6-4.8l-27.3-27.3c-6.4-6.4-6.4-16.8 0-23.2 6.4-6.4 16.8-6.4 23.2 0L256 84.7l51.4-51.4c6.4-6.4 16.8-6.4 23.2 0 6.4 6.4 6.4 16.8 0 23.2l-63 63c-3.2 3.1-7.4 4.7-11.6 4.7z" fill="#EAEAFB"/><path class="st8" d="M307.4 33.3L256 84.7 240.3 69c-6.4-6.4-16.8-6.4-23.2 0l-.4.4.4.4 27.3 27.3c3.2 3.2 7.4 4.8 11.6 4.8 4.2 0 8.4-1.6 11.6-4.8l63-63c.1-.1.3-.3.4-.5l-.4-.4c-6.4-6.3-16.8-6.3-23.2.1z" fill="#fff"/><path class="st11" d="M256 124.2c-4.2 0-8.4-1.6-11.6-4.8l-27.3-27.3c-6.4-6.4-6.4-16.8 0-23.2 6.4-6.4 16.8-6.4 23.2 0L256 84.7l51.4-51.4c6.4-6.4 16.8-6.4 23.2 0 6.4 6.4 6.4 16.8 0 23.2l-63 63c-3.2 3.1-7.4 4.7-11.6 4.7z" fill="none" stroke="#362eb4" stroke-width="8" stroke-linecap="round" stroke-linejoin="round" stroke-miterlimit="10"/><g class="st0" opacity=".25"><path class="st6" fill="#CBC9EC" d="M34.4 117.5h-4.2l-5.9-5.9v-5.5l10.1 10.1zm-7 0h-3.1v-3.1zm7-4.1l-10.1-10.1v-5.4L34.4 108zm0-16.6L24.3 86.7V65.9h-7.2l12.2-12.1 12.2 12.1h-7.1zm0 8.3L24.3 95v-5.4l10.1 10.1zm453.3 12.4h-4.1l-6-5.9v-5.5l10.1 10.1zm-7 0h-3.1v-3.1zm7-4.1l-10.1-10.1v-5.4l10.1 10.1zm0-16.6l-10.1-10.1V65.9h-7.1l12.2-12.1 12.2 12.1h-7.2zm0 8.3L477.6 95v-5.4l10.1 10.1z"/></g><path class="st8" fill="#fff" d="M399.1 335.2l-30.7-.6.5 30.8 8.9-8.8 20 20 12.5-12.6-20-20z"/><path class="st10" fill="none" stroke="#362eb4" stroke-width="4" stroke-linecap="round" stroke-linejoin="round" stroke-miterlimit="10" d="M399.1 335.2l-30.7-.6.5 30.8 8.9-8.8 20 20 12.5-12.6-20-20z"/><g class="st0" opacity=".25"><path class="st1" fill="none" stroke="#cbc9ec" stroke-width="4" stroke-miterlimit="10" d="M80.4 245.6h43.7m-43.7 12.7h32.8M80.4 271h43.7m-43.7 12.8h32.8m-32.8 12.7h43.7m-43.7 41.4h43.7m-43.7 12.8h32.8m-32.8 12.7h43.7m-43.7 12.7h32.8m-32.8 12.7h43.7"/></g></svg>