<svg width="167" height="176" xmlns="http://www.w3.org/2000/svg" xmlns:xlink="http://www.w3.org/1999/xlink"><defs><path d="M53.542 70.755a32 32 0 0 1-16.803-4.781 1.579 1.579 0 0 1-.514-2.183 1.605 1.605 0 0 1 2.199-.51 28.794 28.794 0 0 0 15.118 4.304c15.842 0 28.73-12.799 28.73-28.528 0-15.731-12.888-28.529-28.73-28.529a28.787 28.787 0 0 0-15.118 4.305 1.604 1.604 0 0 1-2.199-.51 1.58 1.58 0 0 1 .514-2.183 32 32 0 0 1 16.803-4.782c17.601 0 31.922 14.22 31.922 31.699 0 17.478-14.32 31.698-31.922 31.698z" id="a"/></defs><g fill="none"><path d="M129.52 102.224v24.932c0 6.874-5.59 12.467-12.454 12.467H12.454C5.587 139.623 0 134.03 0 127.156v-24.932c0-4.092 2.008-7.7 5.059-9.973C2.008 89.977 0 86.369 0 82.278V57.345c0-4.091 2.008-7.7 5.059-9.973C2.008 45.098 0 41.49 0 37.399V12.466C0 5.592 5.587 0 12.454 0h104.612c6.865 0 12.454 5.592 12.454 12.466V37.4c0 4.091-2.008 7.7-5.059 9.973 3.051 2.274 5.059 5.882 5.059 9.973v24.933c0 4.091-2.008 7.699-5.059 9.973 3.051 2.274 5.059 5.881 5.059 9.973zm-4.984-64.825V12.466c0-4.126-3.35-7.48-7.47-7.48H12.454c-4.12 0-7.473 3.354-7.473 7.48V37.4c0 4.124 3.353 7.48 7.473 7.48h104.612c4.12 0 7.47-3.356 7.47-7.48zm0 44.879V57.345c0-4.124-3.35-7.48-7.47-7.48H12.454c-4.12 0-7.473 3.356-7.473 7.48v24.933c0 4.123 3.353 7.48 7.473 7.48h104.612c4.12 0 7.47-3.357 7.47-7.48zm0 19.946c0-4.124-3.35-7.48-7.47-7.48H12.454c-4.12 0-7.473 3.356-7.473 7.48v24.932c0 4.127 3.353 7.48 7.473 7.48h104.612c4.12 0 7.47-3.353 7.47-7.48v-24.932zm-12.451 14.96a2.61 2.61 0 0 1-1.769-.724 2.614 2.614 0 0 1-.724-1.77c0-.648.274-1.296.724-1.77.92-.923 2.588-.923 3.537 0 .446.474.722 1.122.722 1.77 0 .648-.276 1.297-.722 1.77a2.622 2.622 0 0 1-1.768.723zm-9.966 0a2.622 2.622 0 0 1-1.768-.724 2.62 2.62 0 0 1-.72-1.77c0-.648.272-1.296.72-1.77.949-.923 2.615-.923 3.537 0 .448.474.725 1.122.725 1.77 0 .648-.277 1.297-.725 1.77a2.618 2.618 0 0 1-1.769.723zm-9.962 0a2.618 2.618 0 0 1-1.769-.724 2.623 2.623 0 0 1-.722-1.77c0-.648.274-1.296.722-1.77.922-.923 2.615-.923 3.537 0 .448.474.722 1.122.722 1.77 0 .648-.274 1.297-.722 1.77a2.618 2.618 0 0 1-1.768.723zm-74.722 7.48a2.493 2.493 0 0 1-2.49-2.494v-14.96a2.493 2.493 0 0 1 2.49-2.493 2.493 2.493 0 0 1 2.49 2.493v14.96a2.493 2.493 0 0 1-2.49 2.493zm94.65-52.36c-.65 0-1.298-.274-1.769-.722a2.614 2.614 0 0 1-.724-1.77c0-.649.274-1.297.724-1.77.92-.923 2.588-.923 3.537 0a2.63 2.63 0 0 1 .722 1.77c0 .648-.276 1.296-.722 1.77a2.622 2.622 0 0 1-1.768.723zm-9.966 0a2.575 2.575 0 0 1-1.768-.722 2.62 2.62 0 0 1-.72-1.77c0-.649.272-1.297.72-1.77.949-.923 2.59-.923 3.537 0 .448.473.725 1.121.725 1.77 0 .648-.277 1.296-.725 1.77a2.566 2.566 0 0 1-1.769.723zm-9.962 0a2.618 2.618 0 0 1-1.769-.722 2.623 2.623 0 0 1-.722-1.77c0-.649.274-1.297.722-1.77.947-.923 2.615-.923 3.537 0 .448.473.722 1.121.722 1.77 0 .648-.274 1.296-.722 1.77a2.618 2.618 0 0 1-1.768.723zm-74.722 7.48a2.493 2.493 0 0 1-2.49-2.493v-14.96a2.493 2.493 0 0 1 2.49-2.493 2.493 2.493 0 0 1 2.49 2.494v14.96a2.493 2.493 0 0 1-2.49 2.492zm94.65-52.358a2.62 2.62 0 0 1-1.769-.723 2.614 2.614 0 0 1-.724-1.77c0-.651.274-1.297.724-1.77.92-.923 2.613-.923 3.537 0a2.63 2.63 0 0 1 .722 1.77c0 .648-.276 1.296-.722 1.77-.473.446-1.123.723-1.768.723zm-9.966 0c-.647 0-1.292-.277-1.768-.723a2.62 2.62 0 0 1-.72-1.77c0-.651.272-1.297.72-1.77.922-.923 2.615-.923 3.537 0a2.62 2.62 0 0 1 .725 1.77c0 .648-.277 1.296-.725 1.77a2.631 2.631 0 0 1-1.769.723zm-9.962 0a2.631 2.631 0 0 1-1.769-.723 2.623 2.623 0 0 1-.722-1.77c0-.651.274-1.297.722-1.77.922-.923 2.615-.923 3.537 0 .448.473.722 1.119.722 1.77 0 .648-.274 1.296-.722 1.77-.473.446-1.12.723-1.768.723zm-74.722 7.48a2.493 2.493 0 0 1-2.49-2.494v-14.96a2.493 2.493 0 0 1 2.49-2.492 2.493 2.493 0 0 1 2.49 2.493v14.96a2.493 2.493 0 0 1-2.49 2.493z" fill="#505070"/><path d="M97.313 155.216a36.013 36.013 0 0 0 15.845 3.652c20.128 0 36.445-16.473 36.445-36.793s-16.317-36.792-36.445-36.792a36.013 36.013 0 0 0-15.845 3.652" stroke="#FFF" stroke-width="22" fill="#FFF"/><path d="M112.559 160a37.566 37.566 0 0 1-16.596-3.82 1.61 1.61 0 0 1-.74-2.142 1.586 1.586 0 0 1 2.124-.746 34.427 34.427 0 0 0 15.212 3.5c19.292 0 34.988-15.827 34.988-35.283 0-19.455-15.696-35.283-34.988-35.283a34.409 34.409 0 0 0-15.212 3.502 1.587 1.587 0 0 1-2.124-.746 1.61 1.61 0 0 1 .739-2.142 37.559 37.559 0 0 1 16.597-3.821c21.046 0 38.169 17.267 38.169 38.49 0 21.224-17.123 38.491-38.17 38.491z" stroke="#FFF" stroke-width="22" fill="#FFF"/><path d="M97.313 147.507c4.622 2.878 10.057 4.568 15.898 4.568 16.683 0 30.207-13.558 30.207-30.283 0-16.724-13.524-30.283-30.207-30.283-5.841 0-11.276 1.69-15.898 4.569" stroke="#FFF" stroke-width="22" fill="#FFF"/><g transform="translate(59.08 83.019)"><use fill="#FFF" fill-rule="evenodd" xlink:href="#a"/><path stroke="#FFF" stroke-width="22" d="M53.542 81.755a43.012 43.012 0 0 1-22.59-6.426c-5.924-3.665-7.759-11.453-4.054-17.37 3.672-5.872 11.383-7.662 17.3-4.041a17.794 17.794 0 0 0 9.344 2.667c9.783 0 17.73-7.89 17.73-17.528 0-9.639-7.946-17.529-17.73-17.529-3.282 0-6.51.92-9.37 2.683-5.885 3.607-13.6 1.818-17.272-4.054-3.706-5.924-1.871-13.715 4.064-17.38a43 43 0 0 1 22.578-6.419c23.66 0 42.922 19.128 42.922 42.699 0 23.57-19.263 42.698-42.922 42.698z"/></g><path d="M113.337 126.604c-2.635 0-4.779-2.158-4.779-4.812 0-2.653 2.144-4.81 4.78-4.81 2.635 0 4.779 2.157 4.779 4.81 0 2.654-2.144 4.812-4.78 4.812zm0-6.415a1.6 1.6 0 0 0-1.593 1.603 1.6 1.6 0 0 0 1.593 1.604 1.6 1.6 0 0 0 1.593-1.604 1.6 1.6 0 0 0-1.593-1.603z" stroke="#FFF" stroke-width="22" fill="#FFF"/><path d="M107.352 129.434c-.411 0-.822-.158-1.135-.473a1.623 1.623 0 0 1 0-2.285l18.156-18.278a1.597 1.597 0 0 1 2.27 0 1.623 1.623 0 0 1 0 2.284l-18.157 18.279a1.594 1.594 0 0 1-1.134.473zM113.056 100c-.439 0-.877-.188-1.197-.493a1.795 1.795 0 0 1-.49-1.208c0-.222.05-.442.135-.647a1.75 1.75 0 0 1 .355-.56c.472-.46 1.214-.63 1.838-.358.203.085.388.204.557.358.151.17.27.357.354.56.101.205.135.425.135.647a1.8 1.8 0 0 1-.49 1.208 1.962 1.962 0 0 1-.556.357 1.674 1.674 0 0 1-.64.136zm0 47.547c-.455 0-.877-.172-1.197-.495a1.99 1.99 0 0 1-.355-.564 1.726 1.726 0 0 1-.135-.65c0-.462.186-.889.49-1.213.623-.632 1.77-.632 2.395 0 .303.324.489.751.489 1.213 0 .222-.051.444-.135.65a2.005 2.005 0 0 1-.354.564 1.943 1.943 0 0 1-.557.358 1.667 1.667 0 0 1-.64.137zm23.615-23.773a1.66 1.66 0 0 1-1.197-.496 1.99 1.99 0 0 1-.355-.564 1.726 1.726 0 0 1-.135-.65c0-.221.05-.443.135-.648.085-.206.202-.394.355-.564.64-.633 1.77-.633 2.395 0 .151.17.27.342.354.564.101.205.135.427.135.649 0 .46-.169.888-.49 1.213-.32.324-.741.496-1.197.496zm-35.422-20.944c-.44 0-.877-.187-1.198-.493a1.793 1.793 0 0 1-.489-1.207c0-.442.185-.885.49-1.208a1.753 1.753 0 0 1 1.534-.459c.1.017.202.052.304.102.1.034.202.085.303.153l.253.204c.152.17.27.34.354.562.084.204.136.425.136.646 0 .442-.187.884-.49 1.207l-.253.204a1.272 1.272 0 0 1-.303.153 1.042 1.042 0 0 1-.304.102 2.434 2.434 0 0 1-.337.034zm23.615 41.887c-.22 0-.44-.035-.642-.136a1.977 1.977 0 0 1-.556-.357 1.976 1.976 0 0 1-.355-.56 1.707 1.707 0 0 1-.134-.646c0-.443.185-.884.49-1.206a1.678 1.678 0 0 1 1.838-.358c.202.086.387.204.556.358.303.322.49.763.49 1.206 0 .22-.034.442-.136.646-.084.204-.202.39-.354.56-.32.322-.742.493-1.197.493zm8.996-32.83c-.438 0-.877-.189-1.198-.496a1.975 1.975 0 0 1-.354-.564 1.727 1.727 0 0 1-.135-.649 1.8 1.8 0 0 1 .49-1.213c.64-.633 1.754-.633 2.394 0 .304.324.49.768.49 1.213 0 .444-.186.889-.49 1.213-.32.307-.758.496-1.197.496zm0 23.773c-.22 0-.438-.051-.64-.136a1.943 1.943 0 0 1-.558-.36 1.706 1.706 0 0 1-.354-1.861 1.98 1.98 0 0 1 .354-.565c.641-.632 1.771-.632 2.395 0 .153.17.27.343.355.565.1.205.135.427.135.649 0 .46-.17.887-.49 1.213a1.66 1.66 0 0 1-1.197.495zm-8.996-32.83c-.22 0-.44-.05-.642-.136a1.923 1.923 0 0 1-.556-.358 1.797 1.797 0 0 1-.49-1.209 1.8 1.8 0 0 1 .49-1.209 1.73 1.73 0 0 1 .556-.357 1.712 1.712 0 0 1 1.84.357c.15.17.269.341.353.562.084.205.136.426.136.647 0 .443-.187.886-.49 1.21-.32.306-.76.493-1.197.493zm-23.615 41.887c-.456 0-.877-.172-1.198-.496a1.99 1.99 0 0 1-.355-.564 1.726 1.726 0 0 1-.134-.649c0-.445.185-.89.49-1.213.623-.632 1.753-.632 2.394 0 .303.324.49.768.49 1.213 0 .222-.034.444-.136.65a2.005 2.005 0 0 1-.354.563 1.66 1.66 0 0 1-1.197.496zm46.266-48.113c-.411 0-.822-.158-1.136-.474l-6.426-6.469a1.624 1.624 0 0 1 0-2.287l1.607-1.617a1.598 1.598 0 0 1 2.271 0l6.426 6.469a1.624 1.624 0 0 1 0 2.287l-1.606 1.617a1.596 1.596 0 0 1-1.136.474z" stroke="#FFF" stroke-width="22" fill="#FFF"/><path d="M139.29 98.302c-.383 0-.765-.147-1.057-.44a1.51 1.51 0 0 1 0-2.127l4.885-4.917a1.486 1.486 0 0 1 2.112 0 1.51 1.51 0 0 1 0 2.126l-4.885 4.917c-.292.294-.674.44-1.056.44z" stroke="#FFF" stroke-width="22" fill="#FFF"/><path d="M91.128 97.736h-1.687c-.931 0-1.686-.76-1.686-1.698s.755-1.698 1.686-1.698h1.687c.932 0 1.687.76 1.687 1.698s-.755 1.698-1.687 1.698z" stroke="#FFF" stroke-width="17" fill="#FFF"/><path d="M90.706 111.32H81.43c-.854 0-1.546-.76-1.546-1.697 0-.938.692-1.698 1.546-1.698h9.277c.854 0 1.547.76 1.547 1.698 0 .937-.693 1.698-1.547 1.698zm-.028-7.358h-4.723c-.87 0-1.574-.76-1.574-1.698s.705-1.698 1.574-1.698h4.723c.87 0 1.575.76 1.575 1.698s-.705 1.698-1.575 1.698zm.028 44.718H75.244c-.854 0-1.546-.76-1.546-1.699 0-.938.692-1.698 1.546-1.698h15.462c.854 0 1.547.76 1.547 1.698 0 .939-.693 1.698-1.547 1.698zm-.038-31.133h-14.26c-.876 0-1.585-.76-1.585-1.698 0-.939.709-1.698 1.584-1.698h14.261c.875 0 1.585.76 1.585 1.698 0 .939-.71 1.698-1.585 1.698zm.005 18.679H60.659c-.872 0-1.58-.76-1.58-1.698s.708-1.698 1.58-1.698h30.014c.872 0 1.58.76 1.58 1.698 0 .939-.708 1.698-1.58 1.698zm-.002 6.227H68.532c-.873 0-1.581-.76-1.581-1.698 0-.939.708-1.698 1.581-1.698h22.14c.873 0 1.58.76 1.58 1.698s-.707 1.698-1.58 1.698zM91.222 130h-25.49c-.88 0-1.592-.76-1.592-1.698 0-.939.713-1.698 1.593-1.698h25.489c.88 0 1.593.76 1.593 1.698S92.102 130 91.222 130zm-.544-6.226H70.212c-.87 0-1.574-.76-1.574-1.699 0-.938.705-1.698 1.574-1.698h20.466c.87 0 1.575.76 1.575 1.698 0 .94-.705 1.699-1.575 1.699z" stroke="#FFF" stroke-width="22" fill="#FFF"/><path d="M97.313 155.216a36.013 36.013 0 0 0 15.845 3.652c20.128 0 36.445-16.473 36.445-36.793s-16.317-36.792-36.445-36.792a36.013 36.013 0 0 0-15.845 3.652"/><path d="M112.559 160a37.566 37.566 0 0 1-16.596-3.82 1.61 1.61 0 0 1-.74-2.142 1.586 1.586 0 0 1 2.124-.746 34.427 34.427 0 0 0 15.212 3.5c19.292 0 34.988-15.827 34.988-35.283 0-19.455-15.696-35.283-34.988-35.283a34.409 34.409 0 0 0-15.212 3.502 1.587 1.587 0 0 1-2.124-.746 1.61 1.61 0 0 1 .739-2.142 37.559 37.559 0 0 1 16.597-3.821c21.046 0 38.169 17.267 38.169 38.49 0 21.224-17.123 38.491-38.17 38.491z" stroke="#505070" stroke-width="2" fill="#505070"/><path d="M97.313 147.507c4.622 2.878 10.057 4.568 15.898 4.568 16.683 0 30.207-13.558 30.207-30.283 0-16.724-13.524-30.283-30.207-30.283-5.841 0-11.276 1.69-15.898 4.569" fill="#FFF"/><path d="M111.745 127.599c-3.092 0-5.607-2.551-5.607-5.686 0-3.136 2.515-5.687 5.607-5.687s5.607 2.551 5.607 5.687c0 3.135-2.515 5.686-5.607 5.686zm0-7.582c-1.03 0-1.87.85-1.87 1.896 0 1.045.84 1.895 1.87 1.895 1.03 0 1.869-.85 1.869-1.895 0-1.046-.839-1.896-1.87-1.896z" stroke="#505070" fill="#505070"/><path d="M105.718 130.326c-.482 0-.963-.187-1.331-.56a1.928 1.928 0 0 1 0-2.7l21.3-21.601a1.863 1.863 0 0 1 2.663 0 1.928 1.928 0 0 1 0 2.7l-21.3 21.602c-.368.372-.85.559-1.332.559z" fill="#505070"/><path d="M112.7 96.09c-.516 0-1.03-.223-1.406-.584a2.13 2.13 0 0 1-.574-1.427c0-.262.06-.523.158-.764.1-.261.238-.463.416-.663.554-.543 1.425-.744 2.157-.423.238.101.455.242.653.423.178.2.316.422.416.663.119.241.158.502.158.764 0 .522-.218 1.045-.574 1.427a2.3 2.3 0 0 1-.653.422c-.238.1-.495.161-.752.161zm0 55.848c-.535 0-1.03-.203-1.406-.585a2.354 2.354 0 0 1-.416-.667 2.053 2.053 0 0 1-.158-.767c0-.546.218-1.051.574-1.434.732-.747 2.078-.747 2.81 0 .356.383.574.888.574 1.434 0 .262-.06.524-.158.767-.1.243-.238.463-.416.667a2.278 2.278 0 0 1-.653.424c-.238.1-.495.161-.752.161zm27.54-27.924c-.535 0-1.03-.203-1.406-.586a2.354 2.354 0 0 1-.416-.667 2.053 2.053 0 0 1-.158-.767c0-.262.06-.524.158-.767.1-.242.237-.465.416-.666.752-.748 2.078-.748 2.81 0a2.1 2.1 0 0 1 .416.666c.118.243.158.505.158.767 0 .545-.198 1.05-.574 1.434a1.94 1.94 0 0 1-1.405.586zM98.93 99.108c-.516 0-1.03-.22-1.406-.583a2.128 2.128 0 0 1-.574-1.427c0-.522.218-1.045.574-1.427a2.047 2.047 0 0 1 1.8-.542c.12.02.238.06.357.12.119.04.238.1.357.181l.296.241a2.1 2.1 0 0 1 .416.664c.098.241.158.502.158.763 0 .523-.218 1.045-.574 1.427-.1.08-.198.161-.296.242-.12.08-.238.14-.357.18a1.198 1.198 0 0 1-.356.12 2.805 2.805 0 0 1-.396.041zm27.54 49.812c-.259 0-.516-.042-.753-.161a2.317 2.317 0 0 1-.653-.422 2.338 2.338 0 0 1-.416-.663 2.03 2.03 0 0 1-.158-.762c0-.524.218-1.045.574-1.426a1.958 1.958 0 0 1 2.157-.423c.238.102.455.241.653.423.356.38.574.902.574 1.426 0 .26-.04.521-.158.762-.1.242-.238.461-.416.663-.376.38-.87.582-1.405.582zm10.71-39.246c-.515 0-1.03-.223-1.406-.586a2.337 2.337 0 0 1-.415-.666 2.054 2.054 0 0 1-.159-.767c0-.526.218-1.05.574-1.434.752-.747 2.058-.747 2.81 0 .357.384.574.908.574 1.434 0 .524-.217 1.05-.574 1.433a2.06 2.06 0 0 1-1.405.586zm0 27.925c-.258 0-.515-.062-.753-.162a2.278 2.278 0 0 1-.653-.424 2.024 2.024 0 0 1-.415-2.201c.098-.243.237-.465.415-.667.752-.747 2.078-.747 2.81 0 .179.202.317.405.416.667.118.243.158.505.158.767 0 .544-.198 1.05-.574 1.434a1.94 1.94 0 0 1-1.405.586zm-10.71-38.491c-.259 0-.516-.06-.753-.161-.237-.1-.456-.24-.653-.423a2.132 2.132 0 0 1-.574-1.429c0-.522.218-1.046.574-1.428.197-.181.395-.323.653-.423.713-.302 1.603-.14 2.157.423.178.201.316.402.416.664.098.242.158.503.158.764 0 .524-.218 1.047-.574 1.43-.376.362-.89.583-1.405.583zM98.93 148.92c-.535 0-1.03-.204-1.406-.586a2.354 2.354 0 0 1-.416-.667 2.053 2.053 0 0 1-.158-.767c0-.527.218-1.051.574-1.434.732-.747 2.058-.747 2.81 0 .356.383.574.907.574 1.434 0 .262-.04.525-.158.767-.1.243-.238.464-.416.667-.376.382-.87.585-1.405.585z" fill="#D9D5F1"/><path d="M148.494 94.889a1.87 1.87 0 0 1-1.333-.56l-7.538-7.646a1.93 1.93 0 0 1 0-2.702l1.884-1.912a1.865 1.865 0 0 1 2.666 0l7.538 7.646a1.93 1.93 0 0 1 0 2.702l-1.885 1.912c-.368.373-.85.56-1.332.56z" fill="#505070"/><path d="M139.293 96.158c-.449 0-.897-.174-1.239-.52a1.794 1.794 0 0 1 0-2.513l5.73-5.812a1.734 1.734 0 0 1 2.478 0 1.794 1.794 0 0 1 0 2.512l-5.73 5.812c-.343.347-.791.52-1.24.52zm-46.546 33.45H46.226c-1.353 0-2.449-1.136-2.449-2.54 0-1.404 1.096-2.54 2.449-2.54h46.521c1.353 0 2.449 1.136 2.449 2.54 0 1.404-1.096 2.54-2.449 2.54zm-.217 9.812H56.36c-1.426 0-2.583-1.137-2.583-2.54 0-1.404 1.157-2.54 2.584-2.54h36.17c1.426 0 2.583 1.136 2.583 2.54 0 1.403-1.157 2.54-2.584 2.54zm1.312-18.868H62.55c-1.08 0-1.956-1.136-1.956-2.54 0-1.404.876-2.54 1.956-2.54h31.292c1.08 0 1.956 1.136 1.956 2.54 0 1.404-.876 2.54-1.956 2.54zm-.495-9.057H74.83c-.787 0-1.425-1.136-1.425-2.54 0-1.404.638-2.54 1.425-2.54h18.517c.787 0 1.424 1.136 1.424 2.54 0 1.404-.637 2.54-1.424 2.54z" fill="#505070"/></g></svg>