<svg viewBox="0 0 677 628" height="628pt" width="677pt" xmlns="http://www.w3.org/2000/svg"><path d="M0 0h336.71l-.03.34-.17 1.35c-3.87 3.09-7.94 5.85-11.6 9.19-15.15 13.48-25.94 29.88-35.39 47.65-10.11 20.39-17.58 42.18-22.24 64.45-5.62 25.17-8.3 51.13-8.56 76.9-55.58-.01-111.15 0-166.72-.01-4.3.03-8.77-.23-13.02.39-8.33 1.27-15.63 7.02-19.04 14.69-1.77 3.83-2.22 7.87-2.27 12.04.03 109.93 0 220.06.02 330-15.56 0-31.13.04-46.69-.02-2.86.04-5.88-.21-8.69.36C-.19 558.39.3 560.76.1 563c.04 12.67.01 25.33.02 38.01-.01 5.5 1.28 10.88 4.45 15.43 4.8 7.07 12.88 11.21 21.42 11.12 205.34.01 410.67 0 616.01.01 6.35-.07 12.64.61 18.6-1.98 9.4-3.91 15.7-13.38 15.58-23.58-.03-13.68.11-27.4-.06-41.07-.06-2.79-1.36-3.84-4.07-3.9-17.71-.12-35.51.01-53.23-.04 0-107.67-.01-215.33 0-323-.08-6.58.65-12.54-2.08-18.74-4-9.39-13.51-15.53-23.73-15.37-58.49-.04-116.98.01-175.46-.03-.25-31.36-4.33-62.65-12.4-92.97-8.22-29.36-20.39-57.53-39.72-81.35-8-9.59-17.41-18.91-28.38-25.04l.76-.5H677v628H0V0z" fill="transparent"/><path d="M336.71 0h1.1l-.76.5c10.97 6.13 20.38 15.45 28.38 25.04 19.33 23.82 31.5 51.99 39.72 81.35 8.07 30.32 12.15 61.61 12.4 92.97 58.48.04 116.97-.01 175.46.03 10.22-.16 19.73 5.98 23.73 15.37 2.73 6.2 2 12.16 2.08 18.74-.01 107.67 0 215.33 0 323 17.72.05 35.52-.08 53.23.04 2.71.06 4.01 1.11 4.07 3.9.17 13.67.03 27.39.06 41.07.12 10.2-6.18 19.67-15.58 23.58-5.96 2.59-12.25 1.91-18.6 1.98-205.34-.01-410.67 0-616.01-.01-8.54.09-16.62-4.05-21.42-11.12-3.17-4.55-4.46-9.93-4.45-15.43C.11 588.33.14 575.67.1 563c.2-2.24-.29-4.61 2.21-5.67 2.81-.57 5.83-.32 8.69-.36 15.56.06 31.13.02 46.69.02-.02-109.94.01-220.07-.02-330 .05-4.17.5-8.21 2.27-12.04 3.41-7.67 10.71-13.42 19.04-14.69 4.25-.62 8.72-.36 13.02-.39 55.57.01 111.14 0 166.72.01.26-25.77 2.94-51.73 8.56-76.9 4.66-22.27 12.13-44.06 22.24-64.45 9.45-17.77 20.24-34.17 35.39-47.65 3.66-3.34 7.73-6.1 11.6-9.19l.17-1.35.03-.34z" fill="#4444b4"/><path d="M338.13 7.61c2.63 1.62 5.07 3.5 7.41 5.51.62 3.46 2.07 6.54 3.7 9.63 4.9 9.74 7.55 20.08 11.47 30.16-14.87-.07-29.74-.05-44.61-.01 3.64-11.18 6.87-22.03 12.35-32.52 1.25-2.35 1.87-4.46 2.13-7.1 2.38-2.07 4.87-4.01 7.55-5.67z" fill="#bab4ea"/><path d="M330.58 13.28c-.26 2.64-.88 4.75-2.13 7.1-5.48 10.49-8.71 21.34-12.35 32.52-5.71.04-11.43.05-17.14.03 8.48-14.8 18.49-28.61 31.62-39.65zm14.96-.16c13.17 11.01 23.33 24.97 31.8 39.8-5.54.03-11.09.02-16.63-.01-3.92-10.08-6.57-20.42-11.47-30.16-1.63-3.09-3.08-6.17-3.7-9.63z" fill="#d0cceb"/><path d="M296.24 58.86c4.57-.91 9.55-.32 14.2-.28-2.43 9.42-4.84 18.84-6.65 28.4-1.75 8.47-2.89 17.03-4.49 25.52-7.84-.06-15.69.08-23.53-.12 4.49-17.26 10.67-34.1 18.42-50.16.6-1.17 1.24-2.31 2.05-3.36z" fill="#7c78cb"/><path d="M316.4 59.15c3.2-.69 6.7-.48 9.97-.42-1.8 17.75-3.85 35.6-4.69 53.43-5.51.07-11.02.13-16.53-.1 2.3-16.23 5.49-32.32 9.61-48.19.44-1.62.91-3.2 1.64-4.72z" fill="#726cc5"/><path d="M326.37 58.73c2.88.1 5.75.21 8.63.3.25 17.63.25 35.34 0 52.97-4.44.12-8.88.16-13.32.16.84-17.83 2.89-35.68 4.69-53.43zm14.74.3c2.88-.09 5.77-.19 8.66-.28 2.17 17.79 3.86 35.54 5.1 53.43-4.59 0-9.18-.04-13.77-.19-.17-17.64-.18-35.32.01-52.96z" fill="#4747c1"/><path d="M349.77 58.75c3.35.05 7.45-.59 10.61.59 1.21 2.73 1.81 5.83 2.52 8.72 3.55 14.52 6.56 29.23 8.43 44.06-5.49.14-10.97.1-16.46.06-1.24-17.89-2.93-35.64-5.1-53.43z" fill="#726cc5"/><path d="M366.26 58.5c4.62-.08 9.23-.07 13.85 0 8.76 17 15.68 35.35 20.33 53.89-7.79.14-15.58.17-23.37-.02-2.48-18.19-6.28-36.09-10.81-53.87z" fill="#7c78cb"/><path d="M274.27 118.19c9.62-.51 19.36-.02 29.01-.19-.87 9-1.74 18.01-2.89 26.97-4.93.45-10.37-1-15.12.11-.66 10.91-.07 21.97-.28 32.92-.17 14.29 3.73 27.9 10.03 40.61.94 2.83 1.97 5.62 2.97 8.43 1.31 3.66 1.04 8.08 1.23 11.96.7 15.71 2.09 31.38 3.94 47-9.92-.01-19.83.03-29.74-.03-12.02-52.95-12.33-109.15-.71-162.2.43-1.91.83-3.75 1.56-5.58z" fill="#d0cceb"/><path d="M303.28 118c23.23.01 46.47.02 69.7 0 1.2 8.62 2.04 17.28 2.74 25.95-1.61.09-3.21.19-4.82.24-11.59-1.18-22.81-5.03-31.99-12.34-10.92 9.03-24.62 12.4-38.52 13.12 1.15-8.96 2.02-17.97 2.89-26.97z" fill="#bab5ea"/><path d="M372.98 118c9.74 0 19.47-.01 29.21 0 2.56 10.57 4.61 21.26 6.15 32.02 6.33 45.11 4.66 91.55-5.51 135.98-9.9.01-19.79 0-29.68 0 1.77-12.59 2.72-25.31 3.59-38 .6-8.12.15-15.53 1.92-23.15 8.88-13.64 13.93-29.55 14.08-45.85.05-10.34.04-20.7.04-31.04-.14-1.43.16-3.58-1.89-3.54-6.71.21-13.28.75-19.99-.23 1.61-.05 3.21-.15 4.82-.24-.7-8.67-1.54-17.33-2.74-25.95z" fill="#d0cceb"/><path d="M338.85 136.81c-.06 3.26-.08 6.52-.08 9.79-3.88 2.36-7.45 4.93-11.82 6.38-9.53 3.5-19.35 3.73-29.36 2.92-.84 8.64-.28 17.42-.4 26.1-.1 21.35 10.47 42.18 27.53 54.94 4.16 3.61 8.93 6.04 13.89 8.33l.09 7.71c-21.88-9.13-39.18-27.84-46.26-50.49-2.51-7.92-3.75-16.18-3.74-24.49 0-9.85.02-19.71.01-29.56 17.7 1.17 35.27-1.36 50.14-11.63z" fill="#bbb6ea"/><path d="M338.85 136.81c5.06 2.98 10.05 5.88 15.68 7.67 11.16 3.77 22.73 4.48 34.42 3.78.17 10.24.11 20.5.07 30.74-.2 17.38-6.14 34.49-16.77 48.23-8.69 11.4-20.39 20.15-33.55 25.75l-.09-7.71c-4.96-2.29-9.73-4.72-13.89-8.33 4.53 1.8 8.68 4.81 13.35 6.14 3.39.04 7.02-2.46 9.95-4.05 19.01-11.12 31.56-31.97 32.21-54.03.1-9.63.28-19.31-.17-28.93-10.27.42-20.09.48-29.84-3.3-4.19-1.52-7.61-4.02-11.45-6.17 0-3.27.02-6.53.08-9.79z" fill="#726cc5"/><path d="M338.77 146.6c3.84 2.15 7.26 4.65 11.45 6.17 9.75 3.78 19.57 3.72 29.84 3.3.45 9.62.27 19.3.17 28.93-.65 22.06-13.2 42.91-32.21 54.03-2.93 1.59-6.56 4.09-9.95 4.05-4.67-1.33-8.82-4.34-13.35-6.14-17.06-12.76-27.63-33.59-27.53-54.94.12-8.68-.44-17.46.4-26.1 10.01.81 19.83.58 29.36-2.92 4.37-1.45 7.94-4.02 11.82-6.38z" fill="#4444b4"/><path d="M338.87 151.13l.53.26c-.75 5.87-.6 11.72-.52 17.61-.05 23.53.06 47.05-.06 70.58-16.35-6.91-29.22-20.72-34.7-37.62-4.72-13.54-2.77-27.29-3.17-42.09 13.38.84 26.57-1.3 37.92-8.74z" fill="#edeafb"/><path d="M339.4 151.39c11.17 7.35 24.08 9.22 37.22 8.49-.04 7.71.06 15.42-.04 23.13a62.576 62.576 0 0 1-7.19 28.38c-6.61 12.65-17.54 22.45-30.57 28.19.12-23.53.01-47.05.06-70.58-.08-5.89-.23-11.74.52-17.61z" fill="#fff"/><path d="M83.99 207.2c58.17.02 116.57-.04 174.71.03.37 19.35 1.6 38.9 5.11 57.95-.75-1.05-1.92-1.59-2.56-.12-.27 1.66 1.58 2.34 2.86 2.69 1.13 6.94 2.14 14.27 4.44 20.92 2.66 5.11 4.15 9.6 5.19 15.28-7.55 3.34-15.31 5.85-23.03 8.74-16.36 5.82-32.55 12.18-49.04 17.62 6.04-6.88 13.17-12.73 19.08-19.69-.81-.81-1.62-1.6-2.45-2.39-7.34 7.39-14.86 14.6-22.12 22.06-.05-9.1-.12-18.19-.02-27.29 0-3.48.1-7.19-.63-10.6-1.61-6.84-7.67-12.18-14.61-13.12-6.93-1-13.82 2.21-17.53 8.12-2.55 3.9-2.71 8.08-2.76 12.6.11 21.57.01 43.13.07 64.7-2.1.21-4.29.29-6.33.83-1.69.58-1.15 2-1.44 3.43-.2 6.34-.01 12.7-.1 19.05-.07 2.56.54 4.21 1.85 6.34.73 7.52.09 15.12.44 22.67 4.69.19 9.38.28 14.07.22-.93.96-1.87 1.92-2.81 2.88.88.86 1.75 1.72 2.62 2.57 2.45-2.46 4.89-4.92 7.35-7.36.05 6.46.01 12.92.03 19.39 1.2.03 2.39.06 3.59.1.15-6.54.09-13.07.05-19.6 2.56 2.55 5.14 5.08 7.76 7.57.78-.93 1.55-1.86 2.32-2.8-.85-.84-1.69-1.69-2.54-2.54 4.16-.14 8.33-.28 12.49-.44.46-7.69-.36-15.19.7-22.84.91-.46 1.77-1 2.57-1.61.77-4.79.19-9.85.35-14.7 24.44-.2 48.89.01 73.33-.11 3.68-.02 7.35.06 11.03.17 1.04 3.56 2.08 7.12 3.11 10.68l8.43.45c1.25 5.32 2.95 10.13 5.29 15.06-11.23 13.33-22.78 26.4-34.08 39.67-3 3.58-6.46 6.68-8.48 10.87-1.55-.12-3.09-.23-4.64-.23-.74.19-1.48.4-2.21.62-.62-3.3-4.26-2.76-5.12.11-.54-.22-1.08-.42-1.62-.61-1.36-.24-2.72-.44-4.1-.56-.41.78-.82 1.56-1.21 2.35-.32.63-.63 1.27-.95 1.9-.8-.42-1.59-.82-2.4-1.21-.99.63-1.97 1.28-2.93 1.95.71.85 1.44 1.69 2.17 2.53-.98.32-1.95.65-2.92.97-.67.23-1.32.48-1.98.74-.57.87-1.13 1.76-1.67 2.65.65.23 1.31.44 1.98.65.09 1.06.19 2.11.29 3.16-.95.12-1.9.26-2.84.44-.33.99-.63 1.99-.9 3 1.36.15 2.73.29 4.09.44-1.54.16-3.09.32-4.63.47.53-2.14 1.06-4.29 1.67-6.41-4.11-3.58-8.81-5.94-14.39-5.65-5.22.06-8.9 3.09-13 5.87-1.31-4.14-2.41-8.27-4.95-11.86-3.48-4.92-8.58-8.86-14.36-10.65-1.93-.65-3.83-.46-5.72.18l-.03-5.19c-1.15.13-2.31.26-3.46.41-.04 1.06-.06 2.11-.06 3.17-9.09 1.37-17.26 5.34-22.03 13.5-3.92 6.03-3.65 12.3-3.64 19.19-2.47.72-5.33 1.25-7.53 2.64-2.08 1.61-3.45 4.33-4.88 6.51-3.78-1.34-7.26-2.72-11.33-2.94-8.4-.43-16.81 3.85-21.13 11.12-3.12 4.88-3.34 10.25-4.08 15.82-12.26.22-24.52-.11-36.78.18-.03-91.64.01-183.28-.02-274.91.09-5.7-.71-12.78 2.06-17.93 3.25-6.39 9.82-10.01 16.94-9.87zm349.01 0h149c4.59.03 9.28-.26 13.84.24 6.93.81 12.98 6.04 14.87 12.72 1.18 4.7.74 10.01.78 14.84-.04 91.64.03 183.28-.04 274.92-12.34-.31-24.68.03-37.03-.19-.28-4.75-.19-9.38-2.39-13.73-3.82-7.46-11.53-12.84-20.02-13.11-4.86-.35-8.97 1.23-13.43 2.83-1.33-1.98-2.59-4.32-4.4-5.9-2.29-1.65-5.39-2.31-8.03-3.2-.18-5.11.05-10.13-1.84-14.95-2.84-7.53-9.93-14.04-17.63-16.32-2.34-.76-4.45-.64-6.73.16 0-1.73-.01-3.46-.01-5.2-1.16.13-2.32.26-3.47.41-.04 1.09-.06 2.18-.06 3.26-5.93 1.57-11.41 3.1-15.94 7.5-4.97 4.59-7.3 10.54-8.82 16.99-3.11-2.62-5.89-5.17-10.01-6.05-5.03-.98-10.92-.01-15.01 3.22-1.33.97-1.81 2.25-2.11 3.8-.97.18-1.94.37-2.91.57.27-.95.54-1.9.83-2.84.24-.75.46-1.5.67-2.25-.38-.7-.78-1.39-1.2-2.06-.63-.14-1.26-.28-1.89-.41-.61-.46-1.2-.93-1.8-1.39.19-.73.38-1.47.56-2.2-.79-.69-1.61-1.36-2.44-1.99-.76.71-1.52 1.43-2.27 2.15-.57-.78-1.15-1.56-1.73-2.33.16-.71.32-1.41.47-2.12-1.05-.41-2.09-.82-3.13-1.23-.59 1.01-1.18 2.03-1.77 3.04l-.96-.48c-.68.07-1.36.15-2.04.23l.54-3.39c-1.43.1-2.85.2-4.27.29.34 1.12.68 2.23 1.03 3.34-.8-.22-1.59-.45-2.38-.68l-1.1.69c-.26-.81-.54-1.61-.82-2.41-1.18.16-2.36.33-3.54.5-1.5-2.1-3.03-4.17-4.72-6.12-10.72-12.28-21.19-24.78-31.97-37.02-2.31-2.59-4.48-5.29-6.55-8.07 2.12-4.58 3.64-9.3 4.87-14.19 2.82-.2 5.63-.39 8.44-.57 1.01-3.49 1.96-6.99 2.87-10.51 3.89-.18 7.79-.29 11.69-.24 24.36.19 48.73-.21 73.08.19.07 4.68-.02 9.55.68 14.18.82.72 1.64 1.42 2.48 2.1 1.09 7.65.25 15.13.71 22.82 4.4.17 8.81.24 13.21.2-.95.96-1.9 1.92-2.86 2.88l2.61 2.61c2.47-2.48 4.95-4.95 7.44-7.4.05 6.46.01 12.92.03 19.39 1.2.03 2.39.06 3.59.1.15-6.54.09-13.07.05-19.6 2.56 2.55 5.14 5.08 7.76 7.57.78-.93 1.55-1.86 2.32-2.8l-2.55-2.55c4.44-.13 8.89-.28 13.33-.44.33-7.53-.26-15.1.42-22.6 1.12-1.41 2.32-2.41 2.26-4.38.21-6-.07-12.01.1-18.02-.12-1.96.23-4.83-1.15-6.41-2.11-.52-4.34-.64-6.5-.87-.03-19.24-.01-38.48 0-57.72-.04-4.56.3-9.32-.4-13.83-1.31-7.19-7.52-12.87-14.71-13.88-6.9-1.03-13.86 2.17-17.56 8.07-2.57 3.91-2.73 8.1-2.77 12.64.08 10.88.02 21.76.07 32.65-25.88-9.33-51.73-18.78-77.55-28.28.5-4.05 1.02-7.98 2.85-11.69 3.75-7.15 4.59-16.06 6.12-24.01 1.23-.88 2.46-1.78 3.66-2.71-.87-1.17-1.76-2.32-2.68-3.44 2.85-18.21 4.32-36.73 4.46-55.16 5.16-.21 10.33-.21 15.5-.16z" fill="#7c78cb"/><path d="M295.02 218.61c4.09 6.6 8.4 12.95 13.88 18.48 7.6 7.91 16.7 13.98 26.58 18.66-.02 10.08.01 20.16-.02 30.23-10.77.01-21.53.03-32.3.02-1.85-15.62-3.24-31.29-3.94-47-.19-3.88.08-8.3-1.23-11.96-1-2.81-2.03-5.6-2.97-8.43zm83.64 6.24c-1.77 7.62-1.32 15.03-1.92 23.15-.87 12.69-1.82 25.41-3.59 38-10.71.01-21.42-.01-32.14-.02.01-9.98-.01-19.96.02-29.94 15.49-6.8 28.08-17.23 37.63-31.19z" fill="#bab5ea"/><path d="M103.37 227.42c3.8-.71 7.84-.54 11.53.66 10.12 3.16 16.91 13.39 15.82 23.95-.88 11.61-11.09 20.97-22.73 20.86-12.12.24-22.66-9.76-23.03-21.88-.67-11.2 7.42-21.48 18.41-23.59zm460.94-.02c12.83-2.58 25.59 6.59 27.12 19.58 1.79 12.66-7.72 24.64-20.42 25.8-12.16 1.38-23.6-7.62-25.09-19.75-1.73-11.93 6.57-23.45 18.39-25.63z" fill="#d0cceb"/><path d="M102.44 231.46c7.71-2.29 16.25.61 20.96 7.11 4.64 6.21 4.97 15.06.79 21.59-4.02 6.45-11.68 10.02-19.21 8.82-8.87-1.26-15.94-9.02-16.33-17.98-.57-8.81 5.34-17.08 13.79-19.54zm460.95-.04c7.49-2.16 15.72.55 20.47 6.71 4.76 6 5.4 14.66 1.57 21.29-3.83 6.82-11.7 10.74-19.46 9.59-8.95-1.18-16.12-8.98-16.53-18.01-.56-8.88 5.42-17.17 13.95-19.58z" fill="#7c78cb"/><path d="M109.42 236.39c.66 4.26.61 8.66 1.03 12.97.09 1.42.16 2.94-1.64 3.16-3.17.04-7.3-.48-10.36-1.23-1.19-.79-1.23-1.73-.11-2.82 2.49-.48 5.11-.42 7.64-.51.03-3.89-.29-7.93.33-11.77.86-1.26 2.6-1.47 3.11.2zm457.46-1.17c1.03.19 2.05.4 3.06.64 1.36 3.66.71 8.23.89 12.1 2.29.09 4.68.02 6.94.47.94.37 1.29 1.17 1.06 2.4-3.29 1.39-7.25 1.55-10.79 1.73-1.37.08-2.15-1.22-1.94-2.49.36-4.96.82-9.87.78-14.85z" fill="#d0cceb"/><path d="M413.04 262.52c.92 1.12 1.81 2.27 2.68 3.44-1.2.93-2.43 1.83-3.66 2.71.3-2.05.61-4.11.98-6.15z" fill="#aea9de"/><path d="M263.81 265.18c.13.85.24 1.71.3 2.57-1.28-.35-3.13-1.03-2.86-2.69.64-1.47 1.81-.93 2.56.12z" fill="#c6c2e7"/><path d="M249.67 276.74c.97.77 1.93 1.56 2.87 2.36-1.14 1.11-2.28 2.22-3.43 3.32-.75-.92-1.49-1.85-2.21-2.79.88-1 1.81-1.96 2.77-2.89z" fill="#cac5e9"/><path d="M426.86 276.77c1.02.94 2.01 1.91 3 2.88-.95.92-1.9 1.83-2.85 2.75-1.05-1.1-2.11-2.2-3.16-3.3 1-.78 1.99-1.57 3.01-2.33z" fill="#c2bee6"/><path d="M175.07 285.1c6.2-1.81 13.02 1.76 14.9 7.95 1.1 4.53.55 9.55.67 14.19-3.93-2.34-7.85-5.18-12.64-5.03-4.3-.06-7.65 2.39-11.15 4.52-.17-3.99-.46-8-.42-11.98.67-4.53 4.26-8.42 8.64-9.65zm318.44.53c5.99-2.6 13.11.1 15.86 6 1.87 4.67.93 10.6 1.13 15.57-3.91-2.37-7.68-5.15-12.49-4.97-4.32.02-7.64 2.33-11.16 4.5-.18-4-.48-8-.49-12 .6-4.02 3.46-7.49 7.15-9.1z" fill="#d0cceb"/><path d="M235.97 290.59c.67.99 1.38 1.99 1.91 3.06-.84 1.06-1.76 2.02-2.67 3.01-.83-.98-1.64-1.97-2.44-2.97 1.03-1.08 2.1-2.1 3.2-3.1z" fill="#c9c5e8"/><path d="M440.74 290.8c1.1.93 2.16 1.9 3.23 2.87l-2.93 2.87c-.97-.99-1.95-1.98-2.89-3.01.83-.94 1.7-1.85 2.59-2.73z" fill="#c2bde6"/><path d="M276.59 291.77c7.57-.02 15.14.01 22.71 0 .41 3.53 1.03 7.05 1.56 10.56-6.95.04-13.92-.2-20.87.08l-.32 1.6c-.84-3.07-1.63-6.14-2.36-9.23-.24-1-.48-2-.72-3.01z" fill="#d0cceb"/><path d="M299.3 291.77c25.91-.01 51.83.01 77.75 0-.39 3.51-.81 7.03-1.27 10.54-24.96.19-49.95.14-74.92.02-.53-3.51-1.15-7.03-1.56-10.56z" fill="#bbb6ea"/><path d="M377.05 291.77c7.61 0 15.22-.01 22.83 0-.86 3.51-1.71 7.01-2.64 10.5-7.15.07-14.3.03-21.46.04.46-3.51.88-7.03 1.27-10.54z" fill="#d0cceb"/><path d="M166.43 294.75c-.04 3.98.25 7.99.42 11.98 3.5-2.13 6.85-4.58 11.15-4.52 4.79-.15 8.71 2.69 12.64 5.03-.13 10.26.22 20.53-.3 30.76-.43 9.02.47 17.96.29 26.98-8.15.04-16.29.03-24.44.01 0-17.33.01-34.66 0-51.99.02-6.05-.39-12.24.24-18.25zm319.93-.02c.01 4 .31 8 .49 12 3.52-2.17 6.84-4.48 11.16-4.5 4.81-.18 8.58 2.6 12.49 4.97-.05 19.26.01 38.53-.03 57.8-8.11 0-16.23.01-24.34-.01 0-17.33.01-34.66-.01-51.99.02-6.05-.4-12.25.24-18.27z" fill="#bbb6ea"/><path d="M279.99 302.41c6.95-.28 13.92-.04 20.87-.08 2.74 19.19 5.89 38.33 8.39 57.54-5.26 0-10.51.01-15.76-.01-4.31-18.69-9.05-37.28-13.82-55.85l.32-1.6z" fill="#fff"/><path d="M300.86 302.33c24.97.12 49.96.17 74.92-.02-3.29 19.12-5.72 38.4-8.77 57.56h-57.76c-2.5-19.21-5.65-38.35-8.39-57.54z" fill="#e1e1f6"/><path d="M375.78 302.31c7.16-.01 14.31.03 21.46-.04-5 19.14-9.77 38.35-14.3 57.61-5.31-.01-10.62-.01-15.93-.01 3.05-19.16 5.48-38.44 8.77-57.56z" fill="#fff"/><path d="M328.94 306.66c6.25-.23 12.87-.29 19.11.06 2.71.13 3.23 4.03.78 5.06-3.2.54-6.59.26-9.83.31-3.86-.09-7.92.32-11.71-.39-2.25-1.71-1.34-5.13 1.65-5.04z" fill="#4444b4"/><path d="M218.3 308.23c.83.79 1.64 1.58 2.45 2.39-5.91 6.96-13.04 12.81-19.08 19.69-1.86.81-3.72 1.6-5.59 2.39l.1-2.41c7.26-7.46 14.78-14.67 22.12-22.06z" fill="#d0cceb"/><path d="M275.02 309.89c2.3 7.33 3.82 14.82 5.77 22.25 1.43 6.05 3.25 11.41 3.87 17.46-2.83-3.61-3.2-7.66-4.25-11.96-.93-4.21-2.06-8.36-3.31-12.48-3.76 1.17-7.51 2.39-11.2 3.77-16.82 6.21-33.74 12.19-50.53 18.48-6.1 2.31-12.84 1.49-19.24 1.37-.05-3.44-.03-6.88.07-10.33 26.31-9.39 52.43-19.42 78.82-28.56zm126.45.24c3.7.62 7.36 2.26 10.88 3.54 22.53 8.23 45.03 16.56 67.62 24.61.16 3.52.17 7.01.06 10.52-5.47.11-11.72.7-17.01-.83-21.29-7.38-42.42-15.54-63.71-22.95-1.46 5.35-2.85 10.72-4.01 16.14-.61 2.96-1.7 5.7-3.14 8.35.25-6.99 2.9-13.88 4.43-20.87 1.71-6.13 2.69-12.54 4.88-18.51z" fill="#4747c1"/><path d="M328.08 323.2c6.51-.41 13.37-.31 19.9-.07 2.96.08 3.32 4.49.53 5.14-3.43.53-7.04.2-10.51.27-3.36-.09-6.92.31-10.22-.33-2.5-.66-2.21-4.73.3-5.01zm-.6 16.44c3.4-.67 7.06-.29 10.52-.37 3.49.08 7.12-.27 10.57.28 2.78.71 2.3 5.08-.65 5.14-6.49.25-13.32.34-19.8-.07-2.47-.32-2.79-3.91-.64-4.98z" fill="#4444b4"/><path d="M196.26 354.4c7.24-.27 14.5-.01 21.74-.09 22.8.07 45.61-.16 68.41.11.88 3.39 1.49 7.06 3.01 10.22 2.5.75 5.26.84 7.86 1.08 1.02 5.85 2.21 11.44 5.48 16.51 5.34 8.6 14.23 14.85 24.24 16.58 7.5 1.27 15.41 1.32 22.89-.07 11.66-2.23 21.81-10.6 26.27-21.59 1.48-3.66 2.24-7.74 3.08-11.6 2.51-.14 5.13-.17 7.58-.71 1.7-3.2 2.38-7.04 3.31-10.52 30.16 0 60.32-.06 90.48.03.03 3.43.04 6.86.05 10.29-2.34.38-5.44.16-7.42 1.54-1.14 8.53.2 17.33-.48 25.94-.7-4.63-.61-9.5-.68-14.18-24.35-.4-48.72 0-73.08-.19-3.9-.05-7.8.06-11.69.24-.91 3.52-1.86 7.02-2.87 10.51-2.81.18-5.62.37-8.44.57-1.23 4.89-2.75 9.61-4.87 14.19 2.07 2.78 4.24 5.48 6.55 8.07 10.78 12.24 21.25 24.74 31.97 37.02 1.69 1.95 3.22 4.02 4.72 6.12.44 1.57.9 3.15 1.36 4.72 1-.94 2-1.87 3-2.81l1.1-.69c.79.23 1.58.46 2.38.68.9-.05 1.8-.14 2.7-.24.68-.08 1.36-.16 2.04-.23l.96.48c1.91.72 2.67 2.43 4.43.31.58.77 1.16 1.55 1.73 2.33.65.91 1.3 1.83 1.94 2.75.74-.24 1.47-.48 2.21-.71.6.46 1.19.93 1.8 1.39-.63.99-1.25 1.97-1.88 2.96 1.43.61 2.86 1.2 4.3 1.76-.29.94-.56 1.89-.83 2.84l-.12.43-.09.57c-.09.79-.18 1.57-.26 2.36 1.25 0 2.5.01 3.75.01-.14-1.31-.26-2.62-.37-3.94.3-1.55.78-2.83 2.11-3.8 4.09-3.23 9.98-4.2 15.01-3.22 4.12.88 6.9 3.43 10.01 6.05 1.52-6.45 3.85-12.4 8.82-16.99 4.53-4.4 10.01-5.93 15.94-7.5.01.95.03 1.9.05 2.85 1.16-.45 2.33-.89 3.49-1.32 2.28-.8 4.39-.92 6.73-.16 7.7 2.28 14.79 8.79 17.63 16.32 1.89 4.82 1.66 9.84 1.84 14.95 2.64.89 5.74 1.55 8.03 3.2 1.81 1.58 3.07 3.92 4.4 5.9 4.46-1.6 8.57-3.18 13.43-2.83 8.49.27 16.2 5.65 20.02 13.11 2.2 4.35 2.11 8.98 2.39 13.73 12.35.22 24.69-.12 37.03.19-.05 15.68.16 31.37-.09 47.06-32.12.06-64.24-.01-96.36.03-5.01.14-9.86-.01-14.85-.49-1.29-.06-2.59-.06-3.89 0-5.11.51-10.13.62-15.26.49-95-.02-190-.01-285-.01-5.32.13-10.55.05-15.85-.48-1.29-.06-2.59-.06-3.89 0-4.78.46-9.46.64-14.26.5-32.32-.07-64.65.04-96.97-.05-.08-15.69-.02-31.38-.02-47.06 12.26-.29 24.52.04 36.78-.18.74-5.57.96-10.94 4.08-15.82 4.32-7.27 12.73-11.55 21.13-11.12 4.07.22 7.55 1.6 11.33 2.94 1.43-2.18 2.8-4.9 4.88-6.51 2.2-1.39 5.06-1.92 7.53-2.64-.01-6.89-.28-13.16 3.64-19.19 4.77-8.16 12.94-12.13 22.03-13.5.01.98.03 1.96.05 2.94 1.16-.45 2.33-.9 3.5-1.33 1.89-.64 3.79-.83 5.72-.18 5.78 1.79 10.88 5.73 14.36 10.65 2.54 3.59 3.64 7.72 4.95 11.86 4.1-2.78 7.78-5.81 13-5.87 5.58-.29 10.28 2.07 14.39 5.65-.61 2.12-1.14 4.27-1.67 6.41 1.54-.15 3.09-.31 4.63-.47-.12-1.3-.23-2.59-.35-3.88-.1-1.05-.2-2.1-.29-3.16l1.76.22c.55-.57 1.1-1.15 1.64-1.73-.58-.84-1.16-1.69-1.73-2.53.97-.32 1.94-.65 2.92-.97 1.92-.39 2.29-1.73 3.16-3.27.32-.63.63-1.27.95-1.9l2.76 2.19c.87-1.31 1.72-2.64 2.55-3.98.54.19 1.08.39 1.62.61 1.26.61 2.52 1.23 3.79 1.83l1.33-1.94c.73-.22 1.47-.43 2.21-.62l.57 3.36c.9.23 1.8.47 2.7.71.44-1.29.9-2.56 1.37-3.84 2.02-4.19 5.48-7.29 8.48-10.87 11.3-13.27 22.85-26.34 34.08-39.67-2.34-4.93-4.04-9.74-5.29-15.06l-8.43-.45c-1.03-3.56-2.07-7.12-3.11-10.68-3.68-.11-7.35-.19-11.03-.17-24.44.12-48.89-.09-73.33.11-.03-3.76.32-7.73-.36-11.44-1.5-1.69-5.1-1.3-7.2-1.78-.03-3.39-.07-6.86.15-10.24z" fill="#726cc5"/><path d="M302.85 365.4c5.93-.03 11.86-.01 17.8-.03.43 9.81 1.93 19.34 6.59 28.1-6.18-1.86-11.85-4.6-16.2-9.48-4.85-5.18-7.22-11.65-8.19-18.59z" fill="#edeafb"/><path d="M326.34 365.55c7.89-.45 15.84-.02 23.75-.16-.45 7.86-1.38 16.54-5.04 23.65-1.61 2.86-3.36 5.37-7.06 5.04-4.03.32-5.96-3.52-7.47-6.58-2.89-6.8-4.17-14.59-4.18-21.95z" fill="#bbb6ea"/><path d="M373.57 365.46c-1.04 6.5-3.07 12.6-7.46 17.63-4.42 5.36-10.39 8.42-16.96 10.35 4.61-8.79 5.94-18.2 6.53-27.98 5.96-.2 11.93-.06 17.89 0z" fill="#edeafb"/><path d="M158.44 370.54c.18 3.03.36 6.05.56 9.07 13.04-.03 26.08-.13 39.12.04 0 2.97-.01 5.93-.03 8.9-13.24-.01-26.47 0-39.71-.01 0-6 .14-11.99.06-18z" fill="#e1e1f6"/><path d="M158.44 370.54c13.17.45 26.49.42 39.66.03.01 3.03.01 6.05.02 9.08-13.04-.17-26.08-.07-39.12-.04-.2-3.02-.38-6.04-.56-9.07zm320.02-.07c13.14.62 26.44.45 39.59.1 0 3.09.01 6.18.01 9.27-13.07.04-26.15-.13-39.22.09-.19 2.69-.42 5.38-.54 8.08-.08-5.85-.08-11.69.16-17.54z" fill="#bbb6ea"/><path d="M478.84 379.93c13.07-.22 26.15-.05 39.22-.09 0 2.91-.01 5.81-.03 8.71-13.24-.01-26.49 0-39.74-.01l.01-.53c.12-2.7.35-5.39.54-8.08z" fill="#e1e1f6"/><path d="M154.68 394.35c15.33-.6 30.73-.22 46.07-.18-1.06 7.65-.24 15.15-.7 22.84-4.16.16-8.33.3-12.49.44-3.11-3.05-6.09-6.26-9.32-9.18-3.14 2.85-6.06 5.96-9.05 8.97-4.69.06-9.38-.03-14.07-.22-.35-7.55.29-15.15-.44-22.67zm320.56-.13c8.25-.31 16.51-.1 24.76-.15 7.08.07 14.27-.29 21.3.33-.68 7.5-.09 15.07-.42 22.6-4.44.16-8.89.31-13.33.44-3.1-3.04-6.07-6.24-9.29-9.15-3.16 2.83-6.08 5.95-9.1 8.95-4.4.04-8.81-.03-13.21-.2-.46-7.69.38-15.17-.71-22.82z" fill="#726cc5"/><path d="M311.93 397.64c.04 1.14.07 2.27.1 3.4-1.47-.04-2.94-.1-4.41-.15.89-3.15 1.4-2.58 4.31-3.25z" fill="#c4bfe6"/><path d="M368.13 397.56l.09 3.51c-1.47-.07-2.94-.15-4.41-.23.96-3.07 1.41-2.52 4.32-3.28z" fill="#bfbbe5"/><path d="M308.48 406.63c1.2-.27 2.41-.49 3.64-.67-.25 1.64-.51 3.28-.78 4.92l-.89-.39-2.42-1.08c.11-.94.26-1.87.45-2.78zm56.03-.13c1.25-.15 2.51-.28 3.77-.4-.09.97-.2 1.94-.32 2.91l-.37.64-2.86 1.13c-.09-1.43-.18-2.85-.22-4.28zm-186.27 1.77c3.23 2.92 6.21 6.13 9.32 9.18.85.85 1.69 1.7 2.54 2.54-.77.94-1.54 1.87-2.32 2.8-2.62-2.49-5.2-5.02-7.76-7.57.04 6.53.1 13.06-.05 19.6-1.2-.04-2.39-.07-3.59-.1-.02-6.47.02-12.93-.03-19.39-2.46 2.44-4.9 4.9-7.35 7.36-.87-.85-1.74-1.71-2.62-2.57.94-.96 1.88-1.92 2.81-2.88 2.99-3.01 5.91-6.12 9.05-8.97zm320.02.02c3.22 2.91 6.19 6.11 9.29 9.15l2.55 2.55c-.77.94-1.54 1.87-2.32 2.8-2.62-2.49-5.2-5.02-7.76-7.57.04 6.53.1 13.06-.05 19.6-1.2-.04-2.39-.07-3.59-.1-.02-6.47.02-12.93-.03-19.39-2.49 2.45-4.97 4.92-7.44 7.4l-2.61-2.61c.96-.96 1.91-1.92 2.86-2.88 3.02-3 5.94-6.12 9.1-8.95z" fill="#d0cceb"/><path d="M102.35 409.43c6.49-2 13.24 1.71 15.13 8.18 2.01 6.55-2.25 13.47-8.81 15.05-7.19 1.82-14.9-4.25-14.74-11.66-.18-5.15 3.64-9.97 8.42-11.57zm29.97-.07c5.33-1.72 11.1 2.08 11.64 7.63.58 4.92-3.21 9.34-8.09 9.75-4.59.42-8.63-2.53-9.53-7.07-1.1-4.48 1.74-8.86 5.98-10.31zm406.04.06c3.2-.96 6.9-.56 9.35 1.87 4.29 4.3 3.21 12.45-2.66 14.81-5.55 2.64-12.52-2.02-12.3-8.1-.07-3.77 1.96-7.33 5.61-8.58zm28.96-.09c5.44-1.42 11.56 1.25 14.01 6.33 2.07 5.55 1.09 12.13-4.3 15.36-6.13 4.18-14.83 1.4-17.62-5.38-2.85-6.5.96-14.61 7.91-16.31z" fill="#726cc5"/><path d="M310.45 410.49l.89.39.04.03c2.98 2.47 5.89 4.82 9.59 6.16 4.61 2.07 9.26 2.03 14.2 2.38 1.51.69 3.04 1.37 4.59 1.97l.36-2.28c9.41.73 17.54-2.25 24.61-8.36l2.86-1.13c-.72 1.18-1.42 2.37-2.1 3.57-.52 1.11-.96 2.27-1.42 3.41.73.37 1.45.74 2.17 1.12-.25.92-.51 1.85-.79 2.76l-1.05 1.41c.33 1.4.77 2.77 1.19 4.15l.39 1.63c-.79 1.24-1.48 2.53-2.16 3.83 1.15.25 2.3.49 3.45.74-.2.51-.41 1.02-.62 1.53.32.63.63 1.25.92 1.88-1.2.17-2.39.34-3.59.53.58 1.37 1.2 2.72 1.86 4.07-.19.68-.39 1.36-.58 2.04-.99 2.53-.56 3.5.61 5.88-.07.53-.13 1.05-.19 1.58-.68 1.32-1.24 2.68-1.81 4.05 1.23.06 2.47.11 3.7.17-.25.66-.51 1.32-.78 1.98.26.59.51 1.18.75 1.78-1.18.15-2.36.31-3.54.48.57 1.39 1.2 2.76 1.85 4.12-.2.65-.39 1.31-.59 1.97-1.01 2.51-.55 3.52.62 5.89-.08.58-.15 1.17-.22 1.75-.68 1.26-1.25 2.57-1.82 3.88 1.26.07 2.51.14 3.77.2-.26.65-.53 1.3-.81 1.95.24.6.48 1.21.71 1.82-1.17.15-2.33.3-3.49.47.56 1.37 1.17 2.71 1.81 4.05l-.45 1.9c-.36 1.33-.7 2.66-.94 4.01l1.09 1.13c.62.65 1.23 1.31 1.82 1.99-1.28 1.54-2.5 3.13-3.71 4.72 1.24.44 2.48.87 3.71 1.31.69.44 1.37.87 2.06 1.29-.77.85-1.53 1.71-2.28 2.56-2.48 1.51-2.59 1.57-2.93 4.66 2.18-.83 4.34-1.7 6.35-2.88.88.72 1.76 1.43 2.64 2.15-.91.67-1.79 1.37-2.64 2.11-.92 1.53-1.73 3.1-2.56 4.68.03-1.03.06-2.07.08-3.1-1.2-.17-2.4-.33-3.6-.5-8.07-1.13-16.12-.32-24.35-.68-.05-1.39-.11-2.78-.16-4.16-1.14.17-2.27.36-3.4.57-.16 1.19-.3 2.38-.44 3.58-8.14.35-16.12-.41-24.22.71-1.22.1-2.44.16-3.65.17-.83-.11-1.66-.23-2.48-.35l-.63-2.14c.17-1.08.36-2.15.57-3.22 1.94 1.21 4.02 2.12 6.15 2.95.05-1.18.11-2.36.17-3.55l-2.82-.48c-.28-.83-.55-1.66-.83-2.49l-.63-2.3c1.58-.06 3.16-.12 4.75-.19-.7-1.53-1.4-3.05-2.21-4.54-.09-.84-.19-1.69-.3-2.54l2.07-1.39c-.19-2.38-.37-2.88-2.36-4.43.21-.72.42-1.43.61-2.15.58-.14 1.16-.27 1.74-.42-.04-1.17-.09-2.35-.13-3.53l-3.55.3c.34-.71.69-1.41 1.05-2.11-.37-.68-.74-1.37-1.11-2.05 1.39.09 2.78.18 4.17.25-.6-2.1-1.06-3.56-2.77-5.05.25-.45.5-.89.75-1.34l1.49-1.63c-.06-2.33.05-2.62-2.07-3.97.12-.82.24-1.64.34-2.46.61-.13 1.22-.26 1.83-.4-.04-1.2-.09-2.4-.13-3.6l-3.55.3c.34-.7.69-1.39 1.05-2.08-.37-.68-.74-1.37-1.1-2.07 1.4.08 2.81.15 4.21.22-.7-1.77-1.47-3.47-2.35-5.16-.04-.39-.08-.78-.13-1.17l1.95-1.55c-.13-2.29 0-2.7-2.1-4.02.08-.81.15-1.62.21-2.43.64-.17 1.27-.35 1.91-.53-.03-1.17-.05-2.35-.07-3.53-1.26.05-2.51.11-3.76.17a50.25 50.25 0 0 1 2.36-3.58l1.97-.78c-.8-1.52-1.61-3.04-2.42-4.56v-1.17l1.7-1.61c.04-.81.06-1.61.05-2.42l-1.11-1.27a37.36 37.36 0 0 1-2.51-3.24c1.26.04 2.52.07 3.78.11 0-1.24.01-2.48.01-3.72-1.25.05-2.49.09-3.74.14.67-1.13 1.4-2.22 2.17-3.29z" fill="#7c78cb"/><path d="M336.66 410.37c1.13-.29 2.27-.53 3.42-.72-.04 1.36-.08 2.73-.13 4.1l-3.87-.12c.16-1.09.35-2.18.58-3.26zm28.83 2.85c.9.25 1.8.49 2.71.73-.01 1.01-.01 2.02-.02 3.04-.65.25-1.29.5-1.94.76-.72-.38-1.44-.75-2.17-1.12.46-1.14.9-2.3 1.42-3.41z" fill="#d0cceb"/><path d="M308.28 413.78c1.25-.05 2.49-.09 3.74-.14 0 1.24-.01 2.48-.01 3.72-1.26-.04-2.52-.07-3.78-.11-.01-1.16 0-2.32.05-3.47z" fill="#c9c5e8"/><path d="M336.98 417.59c.9-.27 1.82-.52 2.74-.76l.4 2.31-.36 2.28c-1.55-.6-3.08-1.28-4.59-1.97l1.81-1.86zm-28.92 3.72l2.68-.82 1.11 1.27c.01.81-.01 1.61-.05 2.42l-1.7 1.61-1.67-1.66c-.15-.93-.27-1.88-.37-2.82zm56.34.61l1.05-1.41 3.02.72c-.32 2.65-.78 3.15-2.88 4.84-.42-1.38-.86-2.75-1.19-4.15zm-27.65 2.95c1.02-.32 2.05-.59 3.09-.83.1 1.4.2 2.81.29 4.21-1.4-.1-2.81-.2-4.22-.31.24-1.04.52-2.06.84-3.07zm-26.65 2.09c.81 1.52 1.62 3.04 2.42 4.56l-1.97.78-2.84-.62c.61-1.69 1.44-3.2 2.39-4.72zm55.88.74c.89.39 1.78.79 2.67 1.2-.46 1.12-.92 2.24-1.38 3.37-1.15-.25-2.3-.49-3.45-.74.68-1.3 1.37-2.59 2.16-3.83z" fill="#d0cceb"/><path d="M209.34 430.37c2.44-.72 5.11-.58 7.03 1.25 2.73 2.52 3.71 6.84 1.03 9.77-2.57 3.34-7.54 3.65-10.55.76-3.43-3.44-2.37-10.24 2.49-11.78zm252.97-.02c3.95-1.33 8.12 1.08 9.28 4.99.93 3.23-1.11 6.76-3.98 8.23-3.52 1.44-8.05-.05-9.55-3.68-1.58-3.7.29-8.35 4.25-9.54z" fill="#726cc5"/><path d="M308.19 435.88c1.25-.06 2.5-.12 3.76-.17.02 1.18.04 2.36.07 3.53-.64.18-1.27.36-1.91.53-2.28-.98-1.75-1.65-1.92-3.89zm55.79.33c1.2-.19 2.39-.36 3.59-.53.32 1.07.62 2.15.91 3.22l-2.64 1.38c-.66-1.35-1.28-2.7-1.86-4.07zm-187.51 4.51c1.15-.15 2.31-.28 3.46-.41l.03 5.19c-1.17.43-2.34.88-3.5 1.33-.02-.98-.04-1.96-.05-2.94 0-1.06.02-2.11.06-3.17zm320 0c1.15-.15 2.31-.28 3.47-.41 0 1.74.01 3.47.01 5.2-1.16.43-2.33.87-3.49 1.32-.02-.95-.04-1.9-.05-2.85 0-1.08.02-2.17.06-3.26zm-188.2 3.02l1.63-1.54c2.1 1.32 1.97 1.73 2.1 4.02l-1.95 1.55-1.71-1.58c-.05-.81-.07-1.63-.07-2.45zm56.99-1.42l3.21 1.02c-.35 2.23-1.1 3.21-2.6 4.86-1.17-2.38-1.6-3.35-.61-5.88z" fill="#d0cceb"/><path d="M100.32 444.37c2.73-.73 5.39-.07 7.42 1.88 3.89 3.61 3.26 11.46-2.04 13.45-5.13 2.4-11.23-1-11.67-6.7-.52-4.39 2.2-7.53 6.29-8.63z" fill="#726cc5"/><path d="M340.02 443.59c.02 1.16.03 2.32.04 3.48-1.45-.08-2.9-.16-4.35-.25.91-3.06 1.46-2.52 4.31-3.23z" fill="#c2bee6"/><path d="M572.32 444.37c3.62-1.04 7.46.81 9.24 4.03 1.64 4.04.64 9.59-3.84 11.31-3.97 1.85-8.79.24-10.77-3.7-2.37-4.54.34-10.51 5.37-11.64z" fill="#726cc5"/><path d="M176.35 450.05c1.24-.03 2.49-.05 3.73-.07-.03 1.94-.06 3.88-.1 5.82-1.2-.02-2.4-.05-3.59-.08-.02-1.89-.03-3.78-.04-5.67zm133.83-1.11c.88 1.69 1.65 3.39 2.35 5.16-1.4-.07-2.81-.14-4.21-.22-.09-2.41.42-3.03 1.86-4.94zm55.5.84c.98.34 1.97.68 2.96 1.04-.35 1.06-.7 2.12-1.07 3.18-1.23-.06-2.47-.11-3.7-.17.57-1.37 1.13-2.73 1.81-4.05zm130.67.27c1.24-.03 2.49-.05 3.73-.07-.03 1.94-.06 3.88-.1 5.82-1.2-.02-2.4-.05-3.59-.08-.02-1.89-.03-3.78-.04-5.67zm-159.68 2.86c1.07-.31 2.15-.57 3.24-.79.01 1.45.02 2.9.02 4.35-1.26-.04-2.53-.08-3.8-.13.16-1.14.29-2.3.54-3.43zm-81.22 2.13l-1.33 1.94c-1.27-.6-2.53-1.22-3.79-1.83.86-2.87 4.5-3.41 5.12-.11z" fill="#d0cceb"/><path d="M421.18 453.03c1.42-.09 2.84-.19 4.27-.29l-.54 3.39c-.9.1-1.8.19-2.7.24-.35-1.11-.69-2.22-1.03-3.34z" fill="#c3bfe6"/><path d="M244.61 453.98c1.38.12 2.74.32 4.1.56-.83 1.34-1.68 2.67-2.55 3.98l-2.76-2.19c.39-.79.8-1.57 1.21-2.35zm17.69.67c-.47 1.28-.93 2.55-1.37 3.84-.9-.24-1.8-.48-2.7-.71l-.57-3.36c1.55 0 3.09.11 4.64.23z" fill="#c4c0e7"/><path d="M417.91 453.97c.28.8.56 1.6.82 2.41-1 .94-2 1.87-3 2.81-.46-1.57-.92-3.15-1.36-4.72 1.18-.17 2.36-.34 3.54-.5z" fill="#c6c2e7"/><path d="M429.68 453.34c1.04.41 2.08.82 3.13 1.23-.15.71-.31 1.41-.47 2.12-1.76 2.12-2.52.41-4.43-.31.59-1.01 1.18-2.03 1.77-3.04z" fill="#c5c0e7"/><path d="M240.05 457.02c.81.39 1.6.79 2.4 1.21-.87 1.54-1.24 2.88-3.16 3.27-.73-.84-1.46-1.68-2.17-2.53.96-.67 1.94-1.32 2.93-1.95z" fill="#c8c4e8"/><path d="M436.34 456.87c.83.63 1.65 1.3 2.44 1.99-.18.73-.37 1.47-.56 2.2-.74.23-1.47.47-2.21.71-.64-.92-1.29-1.84-1.94-2.75.75-.72 1.51-1.44 2.27-2.15z" fill="#c7c3e8"/><path d="M265.68 457.45c.97.84 1.93 1.7 2.89 2.56-.95.92-1.89 1.84-2.84 2.76-.81-.76-1.62-1.53-2.41-2.31.25-.41.51-.82.79-1.22.51-.61 1.03-1.2 1.57-1.79z" fill="#c3bee6"/><path d="M308.37 458.03l3.55-.3c.04 1.2.09 2.4.13 3.6-.61.14-1.22.27-1.83.4-2.72-.56-1.65-1.49-1.85-3.7zm55.63.21c1.18-.17 2.36-.33 3.54-.48.34 1.05.66 2.11.97 3.17-.89.47-1.78.95-2.66 1.43-.65-1.36-1.28-2.73-1.85-4.12z" fill="#d0cceb"/><path d="M410.67 457.43c.91.85 1.81 1.72 2.7 2.6-.83.91-1.67 1.82-2.5 2.73-.94-.77-1.87-1.55-2.8-2.34.83-1.03 1.7-2.02 2.6-2.99z" fill="#c3bee6"/><path d="M176.58 459.59c1.12-.28 2.24-.52 3.37-.73.06 2.1.1 4.2.14 6.3l-3.88-.15c.09-1.8.11-3.63.37-5.42zm320 0c1.12-.28 2.24-.52 3.37-.73.06 2.1.1 4.2.14 6.3l-3.88-.15c.09-1.8.11-3.63.37-5.42zm-159.89.9c1.08-.29 2.17-.55 3.27-.76.04 1.43.09 2.87.12 4.31l-4.08-.15c.19-1.14.42-2.27.69-3.4z" fill="#d0cceb"/><path d="M441.91 462.86c.42.67.82 1.36 1.2 2.06-.21.75-.43 1.5-.67 2.25-1.44-.56-2.87-1.15-4.3-1.76.63-.99 1.25-1.97 1.88-2.96.63.13 1.26.27 1.89.41zm-207.52.35c.66-.26 1.31-.51 1.98-.74.57.84 1.15 1.69 1.73 2.53-.54.58-1.09 1.16-1.64 1.73l-1.76-.22c-.67-.21-1.33-.42-1.98-.65.54-.89 1.1-1.78 1.67-2.65z" fill="#c7c2e7"/><path d="M270.49 463.41c.84 1.19 1.51 2.52 2.23 3.79-1.23.27-2.46.48-3.7.64-.7-.87-1.35-1.78-1.94-2.73a40.1 40.1 0 0 1 3.41-1.7z" fill="#c0bbe4"/><path d="M405.82 463.25c1.07.62 2.15 1.25 3.23 1.88-.43 1-.86 2.01-1.29 3.02-1.25-.42-2.49-.83-3.74-1.25.6-1.22 1.2-2.44 1.8-3.65z" fill="#c6c2e7"/><path d="M308.28 465.74l1.6-1.55c2.12 1.35 2.01 1.64 2.07 3.97l-1.49 1.63-2.15-1.54c-.04-.84-.05-1.68-.03-2.51zm56.98-1.41l3.21 1.02c-.35 2.2-1.1 3.21-2.59 4.87-1.17-2.37-1.63-3.38-.62-5.89zm-28.57 3.93c1.12-.34 2.25-.65 3.4-.91-.05 1.45-.11 2.9-.16 4.35-1.29-.04-2.57-.09-3.86-.13.18-1.11.38-2.21.62-3.31zm-160.32 1.72c1.22-.04 2.45-.09 3.68-.14.02 5.11.02 10.21-.01 15.32-1.22-.05-2.45-.1-3.67-.14v-15.04zm55.78.13c.94-.18 1.89-.32 2.84-.44.12 1.29.23 2.58.35 3.88-1.36-.15-2.73-.29-4.09-.44.27-1.01.57-2.01.9-3zm209.34.33l.12-.43c.97-.2 1.94-.39 2.91-.57.11 1.32.23 2.63.37 3.94-1.25 0-2.5-.01-3.75-.01.08-.79.17-1.57.26-2.36l.09-.57zm54.88-.46c1.22-.04 2.45-.09 3.68-.14.02 5.11.02 10.21-.01 15.32-1.22-.05-2.45-.1-3.67-.14v-15.04z" fill="#d0cceb"/><path d="M270.5 471.33c.97-.2 1.95-.35 2.94-.45.19 1.02.37 2.05.55 3.07-1.53.02-3.06.03-4.59.03.34-.89.71-1.78 1.1-2.65z" fill="#c1bce5"/><path d="M403.01 470.82l3.77.42c.03.9.06 1.79.1 2.69-1.3.04-2.6.08-3.9.11l.03-3.22z" fill="#c3bee6"/><path d="M309.71 471.13c1.71 1.49 2.17 2.95 2.77 5.05-1.39-.07-2.78-.16-4.17-.25.03-2.06.37-3.02 1.4-4.8zm55.95.84c.98.26 1.96.54 2.94.82-.31 1.09-.65 2.18-.99 3.26-1.26-.06-2.51-.13-3.77-.2.57-1.31 1.14-2.62 1.82-3.88zm-28.94 3.71c1.05-.3 2.1-.57 3.17-.79.08 1.45.15 2.9.23 4.36-1.39-.1-2.78-.19-4.16-.29.21-1.1.46-2.2.76-3.28zm-105.02 1.61c1.12-.33 2.25-.62 3.4-.87-.06 1.37-.13 2.74-.2 4.1-1.27-.04-2.54-.08-3.81-.13.17-1.04.38-2.07.61-3.1zm210 0c1.12-.33 2.25-.62 3.4-.87-.06 1.37-.13 2.74-.2 4.1-1.27-.04-2.54-.08-3.81-.13.17-1.04.38-2.07.61-3.1zm-133.33 2.8l3.55-.3c.04 1.18.09 2.36.13 3.53-.58.15-1.16.28-1.74.42-2.81-.57-1.75-1.35-1.94-3.65zm55.65.2c1.16-.17 2.32-.32 3.49-.47.35 1.03.69 2.07 1.01 3.11-.9.46-1.8.93-2.69 1.41-.64-1.34-1.25-2.68-1.81-4.05zm-27.35 3.09c1.12-.32 2.25-.59 3.39-.82-.02 1.43-.05 2.87-.08 4.3l-3.93-.12c.17-1.13.38-2.25.62-3.36z" fill="#d0cceb"/><path d="M231.26 485.45c1.26.08 2.53.16 3.79.25l.18 5.04a50.86 50.86 0 0 1-3.68-1.18c-.2-1.37-.23-2.72-.29-4.11z" fill="#ccc8ea"/><path d="M441.57 485.49c1.18.07 2.36.15 3.54.22-.06 1.51-.12 3.02-.19 4.53-1.29-.02-2.58-.04-3.87-.05.17-1.57.35-3.13.52-4.7zm-131.87.4c1.99 1.55 2.17 2.05 2.36 4.43l-2.07 1.39-2.01-1.56c.39-1.5 1.04-2.87 1.72-4.26zm55.68.35l2.38 1.16c.35.96.7 1.92 1.03 2.88-1.09.38-2.17.75-3.26 1.1l-1.09-1.13c.24-1.35.58-2.68.94-4.01zm-28.71 4.67c1.07-.31 2.15-.57 3.24-.79.01 1.45.02 2.9.02 4.35-1.26-.04-2.53-.08-3.8-.13.16-1.14.29-2.3.54-3.43z" fill="#d0cceb"/><path d="M235.74 493.92c.32 1.13.65 2.26.98 3.4-1.14.5-2.27 1-3.41 1.5-.5-1.31-.99-2.62-1.49-3.93 1.3-.33 2.61-.65 3.92-.97z" fill="#c0bbe5"/><path d="M307.37 494.33c.98-.03 1.95-.06 2.92-.08.81 1.49 1.51 3.01 2.21 4.54-1.59.07-3.17.13-4.75.19-.18-.73-.35-1.45-.52-2.18.05-.82.09-1.64.14-2.47zm59.98-.96l1.15 1.41c.45.71.9 1.41 1.34 2.12-.83.83-1.66 1.67-2.49 2.5-1.23-.44-2.47-.87-3.71-1.31 1.21-1.59 2.43-3.18 3.71-4.72z" fill="#d0cceb"/><path d="M444.48 494.62l-1.14 4.07c-1.18-.34-2.35-.67-3.53-1.01.23-1.13.47-2.27.73-3.4 1.32.08 2.63.21 3.94.34z" fill="#c4c0e6"/><path d="M336.69 498.5a45.7 45.7 0 0 1 3.27-.78c.04 1.44.09 2.88.12 4.32l-4.08-.15c.19-1.14.42-2.27.69-3.39z" fill="#d0cceb"/><path d="M237.81 500.8c.46 1.07.92 2.14 1.38 3.22-1.11.59-2.22 1.19-3.33 1.79-.58-1.23-1.15-2.45-1.72-3.67 1.22-.45 2.45-.89 3.67-1.34z" fill="#c7c3e8"/><path d="M305.58 501.36c.93-.04 1.87-.07 2.8-.08.28.83.55 1.66.83 2.49l2.82.48c-.06 1.19-.12 2.37-.17 3.55-2.13-.83-4.21-1.74-6.15-2.95-.52-.33-1.03-.67-1.55-1.01.47-.83.94-1.66 1.42-2.48z" fill="#d0cceb"/><path d="M369.41 500.69l1.44.9c.47.72.91 1.46 1.33 2.2l-1.63 1.24c-2.01 1.18-4.17 2.05-6.35 2.88.34-3.09.45-3.15 2.93-4.66.75-.85 1.51-1.71 2.28-2.56z" fill="#cbc7e9"/><path d="M438.89 500.85c1.15.36 2.29.73 3.43 1.12-.55 1.32-1.09 2.64-1.64 3.96-1.18-.68-2.36-1.37-3.51-2.09.54-1.01 1.12-2.01 1.72-2.99z" fill="#bfbbe4"/><path d="M178.2 505.16c4.3 3.49 7.94 7.83 11.93 11.68-.8.87-1.59 1.74-2.39 2.61-2.62-2.43-5.17-4.92-7.67-7.47-.01 6.59.04 13.17-.09 19.76-1.2-.02-2.4-.05-3.6-.08-.02-6.49.03-12.98-.05-19.46-2.48 2.37-4.91 4.78-7.34 7.22-.87-.85-1.74-1.7-2.62-2.55 3.98-3.85 7.6-8.16 11.83-11.71zm320.01 0c4.3 3.49 7.93 7.84 11.92 11.68-.8.87-1.6 1.74-2.39 2.61-2.62-2.43-5.17-4.92-7.67-7.47-.01 6.59.04 13.17-.09 19.76-1.2-.02-2.4-.05-3.6-.08-.02-6.51.03-13.01-.05-19.51-2.5 2.38-4.96 4.79-7.41 7.23a617.3 617.3 0 0 0-2.64-2.53c4.01-3.84 7.65-8.16 11.93-11.69zm-161.65.94c1.13-.21 2.26-.4 3.4-.57.05 1.38.11 2.77.16 4.16-1.33-.02-2.66-.02-4-.01.14-1.2.28-2.39.44-3.58z" fill="#d0cceb"/><path d="M240.78 507.11c.8.89 1.57 1.8 2.34 2.71-1.04.84-2.08 1.67-3.12 2.5-.82-1.13-1.63-2.27-2.44-3.4 1.07-.62 2.13-1.24 3.22-1.81z" fill="#c2bee6"/><path d="M302.4 507.27c.92.24 1.83.51 2.74.8l.63 2.14c-.84.53-1.7 1.02-2.57 1.49a38.02 38.02 0 0 1-3.01-1.47c.72-.99 1.46-1.98 2.21-2.96z" fill="#c4c0e6"/><path d="M373.19 507.18c1.05.83 2.05 1.69 3.08 2.55-1.06.84-2.13 1.68-3.19 2.52-.84-.99-1.68-1.97-2.53-2.96.85-.74 1.73-1.44 2.64-2.11z" fill="#c4c0e7"/><path d="M435.54 507.4c1.15.31 2.27.8 3.38 1.23-.74 1.22-1.47 2.44-2.21 3.65-1.17-.8-2.34-1.61-3.51-2.42.75-.85 1.53-1.67 2.34-2.46z" fill="#c4bfe6"/><path d="M308.25 510.56c1.21-.01 2.43-.07 3.65-.17.04 1.21.08 2.41.13 3.62-1.28 0-2.56-.01-3.84-.01l.06-3.44z" fill="#c9c5e8"/><path d="M364.47 510.37c1.2.17 2.4.33 3.6.5-.02 1.03-.05 2.07-.08 3.1-1.19.01-2.39.03-3.58.04l.06-3.64z" fill="#c4c0e7"/><path d="M245.11 512.7c.91.7 1.81 1.4 2.71 2.13l-2.31 3c-1.09-.94-2.18-1.89-3.26-2.83.94-.78 1.89-1.55 2.86-2.3z" fill="#c8c3e8"/><path d="M298.2 512.71c1.02.73 2.01 1.48 3.01 2.24l-2.97 3c-.9-1.01-1.8-2.01-2.7-3.02.87-.75 1.76-1.49 2.66-2.22z" fill="#c1bde5"/><path d="M336.71 513.67c1.05-.29 2.12-.55 3.19-.77.08 1.45.15 2.9.22 4.34-1.38-.08-2.77-.16-4.15-.25.21-1.11.45-2.22.74-3.32z" fill="#d0cceb"/><path d="M378.09 512.74c.91.69 1.82 1.39 2.72 2.1-.77 1-1.53 2.01-2.3 3.01-1.1-.94-2.2-1.88-3.3-2.83.95-.77 1.91-1.53 2.88-2.28z" fill="#c8c3e8"/><path d="M431.21 512.7c1.02.72 2.01 1.48 3.01 2.24-.99.99-1.99 1.98-2.98 2.97-.91-.99-1.82-1.99-2.73-2.99.89-.75 1.79-1.49 2.7-2.22z" fill="#c1bce5"/><path d="M250.38 517.44c1.08.35 2.12.84 3.16 1.28-.59 1.21-1.17 2.41-1.76 3.62-1.3-.76-2.61-1.53-3.91-2.29.81-.91 1.64-1.78 2.51-2.61zm42.84-.11c.74.89 1.48 1.79 2.2 2.7-1.15.79-2.3 1.59-3.44 2.38-.73-1.17-1.45-2.33-2.18-3.5 1.14-.53 2.26-1.09 3.42-1.58z" fill="#c2bde5"/><path d="M308.59 517.59c1.09-.27 2.19-.51 3.3-.7l.03 3.84-4.02-.09c.2-1.03.43-2.04.69-3.05zm56.26.01c1.08-.3 2.17-.55 3.27-.77-.01 1.31-.02 2.62-.04 3.93l-3.94-.15c.2-1.01.44-2.02.71-3.01z" fill="#d0cceb"/><path d="M383.38 517.46c1.07.34 2.1.82 3.14 1.26-.58 1.22-1.15 2.43-1.73 3.64-1.31-.76-2.62-1.53-3.93-2.31.81-.9 1.65-1.76 2.52-2.59z" fill="#c2bde6"/><path d="M425.91 517.24c.87.89 1.71 1.82 2.55 2.74l-3.48 2.4c-.72-1.12-1.43-2.25-2.14-3.38 1.02-.6 2.03-1.2 3.07-1.76z" fill="#c2bde5"/><path d="M256.47 521.16c1.14.08 2.26.29 3.38.47-.33 1.25-.67 2.51-1.01 3.77-1.46-.48-2.93-.94-4.4-1.43.65-.96 1.32-1.9 2.03-2.81z" fill="#c5c1e7"/><path d="M286.94 520.82c.62 1.05 1.23 2.11 1.82 3.18-1.28.51-2.56 1.01-3.84 1.52-.44-1.23-.88-2.47-1.32-3.7 1.11-.35 2.22-.68 3.34-1z" fill="#c7c2e7"/><path d="M336.67 521.36c1.12-.31 2.25-.57 3.4-.8-.03 1.43-.05 2.86-.08 4.29-1.31-.03-2.62-.06-3.93-.1.17-1.14.37-2.27.61-3.39z" fill="#d0cceb"/><path d="M389.47 521.17c1.13.07 2.26.28 3.38.46-.34 1.26-.67 2.51-1.01 3.77-1.47-.47-2.94-.94-4.4-1.41.64-.97 1.32-1.91 2.03-2.82z" fill="#c5c0e7"/><path d="M419.94 520.82c.62 1.05 1.23 2.11 1.82 3.17l-3.84 1.53c-.45-1.23-.89-2.46-1.34-3.69 1.12-.35 2.24-.69 3.36-1.01z" fill="#c7c2e7"/><path d="M263.08 522.96c1.15.22 2.29.43 3.44.65l-.51 3.71c-1.31-.3-2.63-.6-3.95-.91l1.02-3.45zm14.4.77c1.04-.36 2.1-.67 3.16-.95.11 1.35.23 2.7.34 4.06-1.38.03-2.75.06-4.12.08.17-1.07.37-2.14.62-3.19zm118.6-.77l3.43.63-.51 3.72c-1.31-.3-2.62-.6-3.94-.9l1.02-3.45zm14.41.78c1.03-.36 2.08-.68 3.14-.96.12 1.35.23 2.71.35 4.06l-4.14.09c.18-1.08.39-2.14.65-3.19zm-140.77.16c1.29.07 2.59.15 3.88.22l.03 3.66c-1.17-.06-2.34-.14-3.5-.24-.16-1.21-.29-2.42-.41-3.64z" fill="#d0cceb"/><path d="M308.18 524.01c1.27-.03 2.54-.07 3.81-.1l.03 3.42-3.89-.09c.02-1.08.03-2.15.05-3.23z" fill="#c9c5e8"/><path d="M364.28 524.37c1.29-.3 2.59-.57 3.9-.79v4.22c-1.23-.32-2.45-.67-3.65-1.08-.13-.77-.21-1.55-.25-2.35z" fill="#c4c0e7"/><path d="M402.72 523.9c1.29.07 2.58.14 3.88.22 0 1.22.01 2.44.02 3.66-1.17-.06-2.33-.15-3.5-.24-.15-1.21-.28-2.43-.4-3.64zm-66.06 5.01c1.08-.3 2.16-.56 3.26-.78.02 1.47.03 2.93.04 4.4-1.28-.05-2.56-.09-3.84-.14.17-1.16.29-2.34.54-3.48zm-28.01 2.07c1.04-.29 2.09-.54 3.15-.75l.21 3.78-4.25-.12c.26-.99.56-1.96.89-2.91zm59.06-.48c.26 1.18.51 2.37.74 3.55-1.43-.06-2.86-.13-4.28-.2.2-1.05.41-2.09.64-3.13.96-.1 1.93-.17 2.9-.22zm-31.02 5.99c1.09-.29 2.18-.54 3.29-.75.04 1.43.07 2.86.11 4.29-1.36-.04-2.72-.08-4.08-.13.19-1.15.42-2.28.68-3.41zm-160.1 1.17c1.11-.29 2.22-.53 3.34-.74.07 2.13.12 4.25.18 6.38l-3.93-.21c.1-1.81.14-3.65.41-5.43zm132-.07c1.09-.27 2.19-.51 3.3-.7l.03 3.84-4.02-.09c.2-1.03.43-2.04.69-3.05zm56.26.01c1.08-.3 2.17-.55 3.27-.77-.01 1.31-.02 2.62-.04 3.93l-3.94-.15c.2-1.01.44-2.02.71-3.01zm131.74.06c1.11-.29 2.22-.53 3.34-.74.07 2.13.12 4.25.18 6.38l-3.93-.21c.1-1.81.14-3.65.41-5.43z" fill="#d0cceb"/><path d="M308.55 544.34c1.14-.28 2.29-.5 3.46-.68-.02 1.1-.03 2.2-.04 3.29-1.42-.04-2.84-.08-4.26-.13.26-.84.54-1.66.84-2.48z" fill="#c4bfe6"/><path d="M336.68 544.34c1.12-.28 2.24-.51 3.39-.7l-.03 3.37c-1.42-.07-2.83-.14-4.24-.22.27-.82.57-1.64.88-2.45z" fill="#c2bde5"/><path d="M364.81 544.35c1.11-.29 2.25-.54 3.39-.74l-.03 3.47c-1.43-.1-2.86-.2-4.29-.31.29-.81.6-1.62.93-2.42z" fill="#bfbae4"/><path d="M176.31 546.91l3.8-.21c-.06 1.96-.11 3.91-.17 5.87l-3.53-.09c-.03-1.86-.06-3.72-.1-5.57zm320 0l3.8-.21c-.06 1.96-.11 3.91-.17 5.87l-3.53-.09c-.03-1.86-.06-3.72-.1-5.57zm-316.16 9.61c-.06 1.82-.11 3.63-.17 5.44l-3.55-.03c-.05-1.8-.11-3.61-.17-5.41 1.3-.06 2.6-.06 3.89 0zm320 0c-.06 1.82-.12 3.63-.17 5.44l-3.55-.03c-.05-1.8-.11-3.61-.17-5.41 1.3-.06 2.6-.06 3.89 0z" fill="#d0cceb"/><path d="M67 564.54c60.15-.01 120.3.02 180.45-.01.15 6.64 1.57 12.85 6.17 17.86 4.66 5.27 11.37 8.04 18.37 7.93 43.65.02 87.37-.03 131.01.03 6.21.16 12.18-1.32 17.01-5.34 6.36-5.1 8.85-12.5 8.93-20.47H610c19.6-.44 39.23-.11 58.84-.23l-.02.56c-1.13 12.28.06 24.53-.71 36.87-56 .16-112.01-.12-168.01.14-.12-11.81.06-23.61-.1-35.42-1.19.2-2.38.41-3.57.63-.23 11.6.06 23.21-.11 34.81-6.11-.15-12.21-.15-18.32-.12H205c-8.3.02-16.6-.08-24.9.1-.12-11.81.06-23.61-.1-35.42-1.19.19-2.38.41-3.57.63-.23 11.6.06 23.21-.11 34.81-45.1-.28-90.22-.04-135.32-.12-11.18.06-22.37-.16-33.55.15-.03-12.53.03-25.06-.01-37.59 19.85.04 39.71-.22 59.56.2z" fill="#fff"/><path d="M251.11 564.62c58.05-.04 116.11-.03 174.16 0-.33 3.66-.7 7.23-2.09 10.67-51.72.08-103.45-.01-155.18.04-4.96.07-9.9-.09-14.86-.16-1.35-3.4-1.71-6.94-2.03-10.55z" fill="#d0cceb"/><path d="M668.82 564.87c.17 12.37.15 24.76.07 37.13-.04 6.77-3.71 13.04-9.74 16.17-5.05 2.82-11.53 1.96-17.15 2.07-202.33-.01-404.67 0-607 0-5.85-.14-12.81.84-18.03-2.19-5.98-3.25-9.41-9.35-9.52-16.12 11.18-.31 22.37-.09 33.55-.15 45.1.08 90.22-.16 135.32.12-.03 3.62.01 7.24.06 10.85l3.54.18c.11-3.68.19-7.36.18-11.05 8.3-.18 16.6-.08 24.9-.1h273c6.11-.03 12.21-.03 18.32.12-.03 3.62.01 7.24.06 10.85l3.54.18c.11-3.68.19-7.36.18-11.05 56-.26 112.01.02 168.01-.14.77-12.34-.42-24.59.71-36.87z" fill="#edeafb"/><path d="M176.43 567.09c1.19-.22 2.38-.44 3.57-.63.16 11.81-.02 23.61.1 35.42.01 3.69-.07 7.37-.18 11.05l-3.54-.18c-.05-3.61-.09-7.23-.06-10.85.17-11.6-.12-23.21.11-34.81zm320 0c1.19-.22 2.38-.43 3.57-.63.16 11.81-.02 23.61.1 35.42.01 3.69-.07 7.37-.18 11.05l-3.54-.18c-.05-3.61-.09-7.23-.06-10.85.17-11.6-.12-23.21.11-34.81z" fill="#d0cceb"/><path d="M253.14 575.17c4.96.07 9.9.23 14.86.16 51.73-.05 103.46.04 155.18-.04-2.27 4-5.3 7.41-9.53 9.38-5.19 2.55-11.05 1.89-16.65 1.96-41.67-.04-83.35 0-125.02-.02-8.21.12-15.1-4.18-18.84-11.44z" fill="#bbb6ea"/></svg>